<?xml version="1.0" encoding="UTF-8" standalone="no"?>
<svg
   xmlns:dc="http://purl.org/dc/elements/1.1/"
   xmlns:cc="http://creativecommons.org/ns#"
   xmlns:rdf="http://www.w3.org/1999/02/22-rdf-syntax-ns#"
   xmlns:svg="http://www.w3.org/2000/svg"
   xmlns="http://www.w3.org/2000/svg"
   xmlns:sodipodi="http://sodipodi.sourceforge.net/DTD/sodipodi-0.dtd"
   xmlns:inkscape="http://www.inkscape.org/namespaces/inkscape"
   width="512"
   height="512"
   viewBox="0 0 512 512"
   version="1.1"
   id="svg8"
   inkscape:version="1.0 (4035a4fb49, 2020-05-01)"
   sodipodi:docname="logo.svg"
   inkscape:export-xdpi="96"
   inkscape:export-ydpi="96">
  <defs
     id="defs2" />
  <sodipodi:namedview
     id="base"
     pagecolor="#ffffff"
     bordercolor="#666666"
     borderopacity="1.0"
     inkscape:pageopacity="0.0"
     inkscape:pageshadow="2"
     inkscape:zoom="0.84301533"
     inkscape:cx="259.88264"
     inkscape:cy="210.18183"
     inkscape:document-units="px"
     inkscape:current-layer="layer1"
     showgrid="true"
     units="px"
     inkscape:pagecheckerboard="true"
     inkscape:window-width="958"
     inkscape:window-height="1000"
     inkscape:window-x="3506"
     inkscape:window-y="352"
     inkscape:window-maximized="0"
     inkscape:document-rotation="0">
    <inkscape:grid
       type="axonomgrid"
       id="grid51"
       units="px"
       empspacing="6"
       spacingy="15"
       visible="true"
       originx="256"
       originy="256" />
  </sodipodi:namedview>
  <metadata
     id="metadata5">
    <rdf:RDF>
      <cc:Work
         rdf:about="">
        <dc:format>image/svg+xml</dc:format>
        <dc:type
           rdf:resource="http://purl.org/dc/dcmitype/StillImage" />
        <dc:title />
      </cc:Work>
    </rdf:RDF>
  </metadata>
  <g
     inkscape:label="Layer 1"
     inkscape:groupmode="layer"
     id="layer1"
     transform="translate(0,-152.70832)">
    <path
       transform="translate(0,152.70832)"
       d="M 139.08594 83.5 L 48.154297 136 L 48.154297 241 L 139.08594 248.5 L 191.04883 218.5 L 191.04883 158.5 L 139.08594 83.5 z "
       style="fill:#ffffff;fill-opacity:0.95983934;stroke:none;stroke-width:6;stroke-linecap:round;stroke-linejoin:round;stroke-miterlimit:4;stroke-dasharray:none;stroke-opacity:1;paint-order:normal"
       id="path28-08-8-8-8-3" />
    <path
       transform="translate(0,152.70832)"
       d="M 372.91406 83.5 L 320.95117 158.5 L 320.95117 218.5 L 372.91406 248.5 L 463.8457 241 L 463.8457 136 L 372.91406 83.5 z "
       style="fill:#ffffff;fill-opacity:0.95983934;stroke:none;stroke-width:6;stroke-linecap:round;stroke-linejoin:round;stroke-miterlimit:4;stroke-dasharray:none;stroke-opacity:1;paint-order:normal"
       id="path28-08-8-8-8-3-1" />
    <path
       transform="translate(0,152.70832)"
       d="M 256 331 L 204.03906 361 L 165.06641 443.5 L 256 496 L 346.93359 443.5 L 307.96094 361 L 256 331 z "
       style="fill:#ffffff;fill-opacity:0.95983934;stroke:none;stroke-width:6;stroke-linecap:round;stroke-linejoin:round;stroke-miterlimit:4;stroke-dasharray:none;stroke-opacity:1;paint-order:normal"
       id="path28-08-8-8-8-3-0" />
    <path
       transform="translate(0,152.70832)"
       d="M 256 196 L 204.03906 226 L 204.03906 286 L 256 316 L 307.96094 286 L 307.96094 226 L 256 196 z "
       style="fill:#ffffff;fill-opacity:0.95983934;stroke:none;stroke-width:6;stroke-linecap:round;stroke-linejoin:round;stroke-miterlimit:4;stroke-dasharray:none;stroke-opacity:1;paint-order:normal"
       id="path28-08-8-8-8-3-16" />
    <path
       transform="translate(0,152.70832)"
       d="M 256 16 L 165.06641 68.5 L 204.03906 151 L 256 181 L 307.96094 151 L 346.93359 68.5 L 256 16 z "
       style="fill:#ffffff;fill-opacity:0.95983934;stroke:none;stroke-width:6;stroke-linecap:round;stroke-linejoin:round;stroke-miterlimit:4;stroke-dasharray:none;stroke-opacity:1;paint-order:normal"
       id="path28-08-8-8-8-3-9" />
    <path
       transform="translate(0,152.70832)"
       d="M 372.91406 263.5 L 320.95117 293.5 L 320.95117 353.5 L 372.91406 428.5 L 463.8457 376 L 463.8457 271 L 372.91406 263.5 z "
       style="fill:#ffffff;fill-opacity:0.95983934;stroke:none;stroke-width:6;stroke-linecap:round;stroke-linejoin:round;stroke-miterlimit:4;stroke-dasharray:none;stroke-opacity:1;paint-order:normal"
       id="path28-08-8-8-8-3-7" />
    <path
       transform="translate(0,152.70832)"
       d="M 139.08594 263.5 L 48.154297 271 L 48.154297 376 L 139.08594 428.5 L 139.08594 428.54102 L 191.04883 353.49609 L 191.04883 293.5 L 191.04883 293.45898 L 191.01367 293.48047 L 139.08594 263.5 z "
       style="fill:#ffffff;fill-opacity:0.95983934;stroke:none;stroke-width:6;stroke-linecap:round;stroke-linejoin:round;stroke-miterlimit:4;stroke-dasharray:none;stroke-opacity:1;paint-order:normal"
       id="path28-08-8-8-8-3-10" />
  </g>
</svg>
