<?xml version="1.0" encoding="UTF-8"?>
<svg version="1.1" xmlns="http://www.w3.org/2000/svg" width="256" height="256">
<path d="M0 0 C3.80630431 1.91266615 7.45266185 4.09292358 11.125 6.25 C12.60806641 7.09111328 12.60806641 7.09111328 14.12109375 7.94921875 C15.07371094 8.50738281 16.02632813 9.06554687 17.0078125 9.640625 C17.87035645 10.14110352 18.73290039 10.64158203 19.62158203 11.15722656 C24.36057692 14.82895038 26.64967204 20.0791171 29.09375 25.4296875 C29.3671521 26.02371368 29.6405542 26.61773987 29.92224121 27.22976685 C30.78630997 29.10934768 31.64346388 30.99197627 32.5 32.875 C33.35584916 34.74586981 34.21316564 36.6160532 35.07177734 38.48565674 C35.88796864 40.26483675 36.69989341 42.04597204 37.51171875 43.82714844 C38.75657335 46.48104121 40.07842186 49.05401658 41.46875 51.6328125 C43 55 43 55 42.74975586 57.09594727 C41.50184948 60.26508496 38.96481376 61.15729969 36.0625 62.8125 C35.42731445 63.17996338 34.79212891 63.54742676 34.13769531 63.92602539 C32.65312291 64.78278588 31.16501184 65.63343019 29.67431641 66.47949219 C26.54947457 68.25615048 23.43627166 70.0526418 20.32421875 71.8515625 C16.80195318 73.88741276 13.27911602 75.92214931 9.75024414 77.9465332 C8.66219482 78.57132568 7.57414551 79.19611816 6.453125 79.83984375 C5.47504883 80.40050537 4.49697266 80.96116699 3.48925781 81.53881836 C1.62378164 82.63384336 -0.20017672 83.80011782 -2 85 C-7.21384752 84.73111753 -10.80796436 83.33070564 -15.28125 80.71875 C-16.13894234 80.22419563 -16.13894234 80.22419563 -17.01396179 79.71965027 C-18.84937849 78.65755016 -20.67477422 77.57950292 -22.5 76.5 C-23.75775503 75.76588675 -25.01597637 75.03257187 -26.2746582 74.30004883 C-28.7400102 72.86250183 -31.2011182 71.41808825 -33.65869141 69.96728516 C-36.47545021 68.30884277 -39.30161995 66.6697409 -42.13671875 65.04296875 C-43.48750655 64.25872016 -44.83782627 63.47366433 -46.1875 62.6875 C-47.31542969 62.03136719 -48.44335938 61.37523437 -49.60546875 60.69921875 C-52 59 -52 59 -53 56 C-52.45709229 54.23025513 -52.45709229 54.23025513 -51.50878906 52.25048828 C-51.15802307 51.50606476 -50.80725708 50.76164124 -50.44586182 49.99465942 C-50.05638367 49.19462494 -49.66690552 48.39459045 -49.265625 47.5703125 C-48.87179626 46.742966 -48.47796753 45.91561951 -48.07220459 45.0632019 C-47.23598443 43.31093775 -46.39504889 41.56091736 -45.54980469 39.81298828 C-44.26052541 37.14676648 -42.98444951 34.47456459 -41.7109375 31.80078125 C-40.89660011 30.09859129 -40.08151973 28.39675654 -39.265625 26.6953125 C-38.88424377 25.89932648 -38.50286255 25.10334045 -38.10992432 24.28323364 C-37.09147254 22.1791239 -36.05248136 20.08725224 -35 18 C-34.53601807 17.07485596 -34.07203613 16.14971191 -33.59399414 15.1965332 C-30.47305799 10.89586503 -25.53350429 8.70402252 -20.99487305 6.10424805 C-19.18934825 5.06356531 -17.40682135 3.98954551 -15.62304688 2.91210938 C-13.9127832 1.92114258 -13.9127832 1.92114258 -12.16796875 0.91015625 C-11.12922607 0.30308838 -10.0904834 -0.30397949 -9.02026367 -0.92944336 C-5.15416269 -2.29981381 -3.67457105 -1.69630758 0 0 Z " fill="#000700" transform="translate(133,165)"/>
<path d="M0 0 C0.94963623 0.55953369 1.89927246 1.11906738 2.87768555 1.69555664 C3.94575439 2.31841553 5.01382324 2.94127441 6.11425781 3.58300781 C7.23630615 4.25050049 8.35835449 4.91799316 9.5144043 5.60571289 C10.67668271 6.29039408 11.83936462 6.97439075 13.00244141 7.65771484 C14.74876136 8.68450257 16.49432822 9.71245209 18.23744202 10.74467468 C21.68751763 12.78699004 25.15784031 14.78591216 28.6550293 16.74633789 C29.44482178 17.19372314 30.23461426 17.6411084 31.04833984 18.10205078 C32.49000881 18.91762532 33.93658874 19.72459931 35.38867188 20.52148438 C39.93741964 23.13031646 39.93741964 23.13031646 41.05541992 25.40405273 C41.2746115 28.79202396 39.95277448 30.92483457 38.44799805 33.94555664 C38.15006851 34.5527504 37.85213898 35.15994415 37.54518127 35.78553772 C36.58765043 37.73129977 35.61415121 39.66852708 34.6394043 41.60571289 C33.69723712 43.50435558 32.75845098 45.40461692 31.82157898 47.30587769 C31.19543692 48.56987895 30.56323137 49.83089393 29.92512512 51.08889771 C28.40214716 54.11143263 27.04968032 57.0668155 25.83935547 60.23608398 C22.21872593 69.55241008 17.47164634 73.0453124 8.6394043 77.41821289 C7.51598633 78.01891602 6.39256836 78.61961914 5.23510742 79.23852539 C-4.34199062 84.26892032 -4.34199062 84.26892032 -8.7980957 84.66821289 C-10.78344727 83.95898438 -10.78344727 83.95898438 -12.6887207 82.78930664 C-13.39391846 82.36633301 -14.09911621 81.94335938 -14.82568359 81.50756836 C-15.92577759 80.8136499 -15.92577759 80.8136499 -17.0480957 80.10571289 C-17.80662842 79.63536621 -18.56516113 79.16501953 -19.34667969 78.68041992 C-20.84058542 77.75179748 -22.33150454 76.81834955 -23.8190918 75.87963867 C-25.90515536 74.56711848 -25.90515536 74.56711848 -28.63012695 73.22680664 C-35.86288891 69.38875607 -38.4196533 62.50021795 -41.58520508 55.36010742 C-43.00979854 52.19835873 -44.50364728 49.07338324 -46.0012207 45.94555664 C-47.12216745 43.58282304 -48.24195801 41.21954058 -49.3605957 38.85571289 C-49.91013916 37.70425781 -50.45968262 36.55280273 -51.02587891 35.36645508 C-51.78130981 33.74271973 -51.78130981 33.74271973 -52.55200195 32.08618164 C-53.00905518 31.11447021 -53.4661084 30.14275879 -53.93701172 29.14160156 C-54.7980957 26.66821289 -54.7980957 26.66821289 -53.7980957 23.66821289 C-51.59936523 22.12524414 -51.59936523 22.12524414 -48.6809082 20.48071289 C-47.60744141 19.86905273 -46.53397461 19.25739258 -45.42797852 18.62719727 C-44.25994759 17.97373154 -43.0916477 17.32074637 -41.9230957 16.66821289 C-40.14210341 15.66386532 -38.36238434 14.65728827 -36.58276367 13.6505127 C-35.3851701 12.97333894 -34.186924 12.29731792 -32.98803711 11.62243652 C-29.3042221 9.54340931 -25.66690643 7.40226167 -22.0559082 5.19946289 C-21.2023877 4.68383789 -20.34886719 4.16821289 -19.46948242 3.63696289 C-17.8931085 2.6807756 -16.32393787 1.71257693 -14.76342773 0.73071289 C-13.70551025 0.09649414 -13.70551025 0.09649414 -12.6262207 -0.55053711 C-11.72758301 -1.10644531 -11.72758301 -1.10644531 -10.81079102 -1.67358398 C-6.88966235 -2.95589389 -3.60640867 -1.71651333 0 0 Z " fill="#00040A" transform="translate(134.798095703125,8.331787109375)"/>
<path d="M0 0 C3.62346962 1.20782321 4.10804134 2.22630731 6.1875 5.34765625 C6.79907959 6.25362549 7.41065918 7.15959473 8.04077148 8.09301758 C9.36652629 10.10238278 10.6888612 12.11400789 12.00805664 14.12768555 C16.36912504 20.76369184 16.36912504 20.76369184 21.43359375 26.859375 C30.53760667 37.00494872 31.22817322 49.34211526 30.6388092 62.47332764 C30.22369322 67.84855839 29.68168438 72.31924008 25.5234375 76.14453125 C22.01951346 78.4770156 18.35427267 79.88825749 14.33813477 81.0949707 C11.69987358 82.11617089 9.95347071 83.54550197 7.72265625 85.2734375 C-0.15679434 90.17788453 -9.90178204 87.84203604 -18.6875 86.9375 C-20.55767219 86.77102112 -22.42811778 86.60758421 -24.29882812 86.44726562 C-45.41295223 84.58704777 -45.41295223 84.58704777 -47 83 C-47.09365006 81.2507128 -47.11744438 79.49763746 -47.11352539 77.74584961 C-47.11344986 76.62476303 -47.11337433 75.50367645 -47.11329651 74.34861755 C-47.10813522 73.1288472 -47.10297394 71.90907684 -47.09765625 70.65234375 C-47.0962413 69.41078018 -47.09482635 68.16921661 -47.09336853 66.89002991 C-47.08870591 63.58394509 -47.07971497 60.27792854 -47.06866455 56.97186279 C-47.05844827 53.6003885 -47.05387045 50.22890717 -47.04882812 46.85742188 C-47.03777395 40.23826225 -47.02101736 33.61913507 -47 27 C-46.25129639 26.57291748 -45.50259277 26.14583496 -44.73120117 25.70581055 C-42.48912493 24.42656175 -40.24726212 23.14694394 -38.00561523 21.86694336 C-35.45261019 20.4091964 -32.89860384 18.95322383 -30.34399414 17.49829102 C-24.5427043 14.19099562 -18.75246476 10.87157178 -13.015625 7.453125 C-12.14655518 6.93790283 -11.27748535 6.42268066 -10.38208008 5.8918457 C-8.78307516 4.94055515 -7.18891514 3.98106108 -5.6003418 3.01245117 C-3.77709823 1.93126169 -1.89293278 0.95393569 0 0 Z " fill="#0A0500" transform="translate(69,39)"/>
<path d="M0 0 C10.25073133 -0.55861211 16.56787284 2.4555006 24.96362305 7.85302734 C26.14600664 8.57872481 27.33024986 9.30140133 28.51635742 10.02099609 C31.37255717 11.76968982 34.20652853 13.54612892 37.02612305 15.35302734 C38.77267242 35.0182776 39.2662804 49.53731213 26.1628418 65.48583984 C25.47109863 66.28924805 24.77935547 67.09265625 24.06665039 67.92041016 C20.79109948 71.82536221 17.96820144 76.02797931 15.08862305 80.22802734 C14.10334126 81.62337932 13.11538771 83.01685177 12.1237793 84.40771484 C11.43155273 85.37966797 10.73932617 86.35162109 10.02612305 87.35302734 C6.53996151 86.67616705 3.84863294 85.28315159 0.7644043 83.54443359 C-0.77932861 82.6777002 -0.77932861 82.6777002 -2.35424805 81.79345703 C-3.44560059 81.17374023 -4.53695312 80.55402344 -5.66137695 79.91552734 C-7.33321045 78.97241699 -7.33321045 78.97241699 -9.03881836 78.01025391 C-31.81612126 65.12486447 -31.81612126 65.12486447 -38.97387695 60.35302734 C-39.34136963 57.99327087 -39.34136963 57.99327087 -39.33032227 55.0012207 C-39.33332336 53.88343735 -39.33632446 52.76565399 -39.3394165 51.61399841 C-39.3270697 50.4025264 -39.3147229 49.19105438 -39.30200195 47.94287109 C-39.30012878 46.70509415 -39.29825562 45.4673172 -39.29632568 44.19203186 C-39.28786589 40.89934213 -39.26586051 37.60708646 -39.23815918 34.31451416 C-39.21448478 30.95952741 -39.21317291 27.60457712 -39.20825195 24.24951172 C-39.19908225 21.70979337 -39.18870658 19.17007903 -39.17700195 16.63037109 C-39.17275208 15.41687485 -39.1685022 14.2033786 -39.16412354 12.95310974 C-39.15451599 11.83847855 -39.14490845 10.72384735 -39.13500977 9.57543945 C-39.12818176 8.58885849 -39.12135376 7.60227753 -39.11431885 6.58580017 C-38.97387695 4.35302734 -38.97387695 4.35302734 -37.97387695 3.35302734 C-35.6343711 3.04939097 -33.31480076 2.80448116 -30.96606445 2.59912109 C-30.24838898 2.53394791 -29.5307135 2.46877472 -28.79129028 2.40162659 C-27.25974759 2.26405736 -25.72798904 2.12887422 -24.19604492 1.99584961 C-21.90632806 1.79555297 -19.61790657 1.58365095 -17.3293457 1.37060547 C-13.59488794 1.03107931 -9.85930442 0.74823797 -6.11758423 0.50189209 C-4.07645392 0.36015056 -2.03801961 0.18105157 0 0 Z " fill="#0B0B0B" transform="translate(60.973876953125,129.64697265625)"/>
<path d="M0 0 C9.69448031 4.63983051 19.21967715 9.58844617 28.2331543 15.46386719 C30.61506101 16.78628464 32.73873175 17.63623928 35.29223633 18.52832031 C40.32045851 20.51091542 44.73298521 22.55417258 48 27 C50.69015558 35.6607836 49.68105036 45.17821911 49.16729736 54.10968018 C48.99203097 57.4801642 48.91547726 60.85281736 48.83007812 64.2265625 C48.64332567 70.82335695 48.35953018 77.41048371 48 84 C41.68377968 84.59810011 35.36658277 85.18490674 29.04858398 85.76391602 C26.89990556 85.96216828 24.75146292 86.16299381 22.60327148 86.36645508 C19.51344421 86.65864915 16.422884 86.94154409 13.33203125 87.22265625 C12.37351761 87.31531265 11.41500397 87.40796906 10.42744446 87.50343323 C9.52688828 87.58359177 8.62633209 87.66375031 7.69848633 87.74633789 C6.91016922 87.81961807 6.12185211 87.89289825 5.30964661 87.96839905 C0.14621235 88.03904598 -3.48180489 86.39042873 -7.921875 83.875 C-9.02917969 83.25109375 -10.13648438 82.6271875 -11.27734375 81.984375 C-12.42332031 81.32953125 -13.56929687 80.6746875 -14.75 80 C-15.92284227 79.33794819 -17.09601629 78.67648372 -18.26953125 78.015625 C-26.83069407 73.16930593 -26.83069407 73.16930593 -28 72 C-31.35398151 40.29746636 -31.35398151 40.29746636 -22.6875 29.4375 C-21.06482621 27.52874367 -19.40220333 25.68447448 -17.67675781 23.86816406 C-14.75975308 20.61817568 -12.45675136 16.95447741 -10.0625 13.3125 C-6.93068072 8.64866773 -3.66141757 4.26401224 0 0 Z " fill="#434E14" transform="translate(186,39)"/>
<path d="M0 0 C2.31782719 0.21494572 4.63652405 0.41752509 6.95556641 0.61889648 C8.43349495 0.75164988 9.91136236 0.88508607 11.38916016 1.01928711 C12.08065155 1.07974716 12.77214294 1.14020721 13.48458862 1.20249939 C18.28141859 1.65763929 18.28141859 1.65763929 19.39697266 2.77319336 C20.23294853 10.53600508 20.22577306 18.42550198 20.40625 26.22509766 C20.48296399 28.86719862 20.59198909 31.50857263 20.734375 34.14794922 C21.85578713 55.36288248 21.85578713 55.36288248 17.89385986 60.85797119 C13.9891301 64.29733421 9.49965672 66.14729208 4.65118408 67.90383911 C1.25183642 69.21482409 -1.74642807 71.06508639 -4.84521484 72.96069336 C-8.20490873 74.89339941 -11.56597911 76.82369341 -14.92724609 78.75366211 C-16.01392578 79.37885742 -17.10060547 80.00405273 -18.22021484 80.64819336 C-19.18556152 81.20249023 -20.1509082 81.75678711 -21.14550781 82.32788086 C-22.99992328 83.41849675 -24.81299731 84.57984001 -26.60302734 85.77319336 C-28.58740234 85.68725586 -28.58740234 85.68725586 -30.60302734 84.77319336 C-32.18115234 82.85913086 -32.18115234 82.85913086 -33.85302734 80.14819336 C-38.06116116 73.54798348 -42.49263299 67.12566488 -46.97802734 60.71069336 C-48.38194828 58.69916659 -49.78561005 56.68745889 -51.18896484 54.67553711 C-51.79788574 53.80405029 -52.40680664 52.93256348 -53.03417969 52.03466797 C-57.31582112 45.86273449 -57.18409931 40.56789983 -57.30322266 33.25952148 C-57.33628053 31.77515809 -57.39079358 30.29110938 -57.46728516 28.80834961 C-58.09511059 16.55756463 -58.09511059 16.55756463 -54.59399414 12.37060547 C-52.01388935 10.55012294 -49.4412475 9.15013116 -46.60302734 7.77319336 C-45.27508905 6.90649624 -43.95734963 6.02382512 -42.65380859 5.12084961 C-41.41065331 4.35434454 -40.1646043 3.59251027 -38.91552734 2.83569336 C-38.32320312 2.43801758 -37.73087891 2.0403418 -37.12060547 1.63061523 C-26.78273007 -4.52969821 -11.54547528 -1.07478517 0 0 Z " fill="#550006" transform="translate(214.60302734375,131.226806640625)"/>
<path d="M0 0 C15.88737431 6.752824 15.88737431 6.752824 18.95306396 13.86578369 C21.97913933 24.05229863 21.42494293 35.99098381 18.1640625 46.03515625 C14.55891279 51.40382235 9.40681045 53.44456402 3.390625 55.22900391 C0.95192295 56.11196379 -0.84700277 57.3047758 -2.9609375 58.796875 C-5.72603103 60.57774827 -6.65730957 61.02844417 -10.05859375 61.15625 C-20.15593327 58.15941811 -31.2518313 54.74945661 -37.8359375 46.03515625 C-41.48009098 35.60219759 -39.24312689 22.74603238 -37.8359375 12.03515625 C-34.25557635 9.85894057 -30.6628112 7.70540042 -27.05712891 5.5715332 C-25.83346488 4.84319258 -24.61334026 4.10886994 -23.39697266 3.3684082 C-21.64350704 2.30242154 -19.87825921 1.25889878 -18.109375 0.21875 C-17.05153809 -0.41490479 -15.99370117 -1.04855957 -14.90380859 -1.70141602 C-9.60133039 -3.88511208 -5.16635978 -1.93535512 0 0 Z " fill="#06020A" transform="translate(137.8359375,98.96484375)"/>
<path d="M0 0 C0.89130615 0.52513184 1.7826123 1.05026367 2.70092773 1.59130859 C3.69930664 2.17638184 4.69768555 2.76145508 5.72631836 3.36425781 C7.28962891 4.29262451 7.28962891 4.29262451 8.88452148 5.23974609 C9.9512207 5.86768066 11.01791992 6.49561523 12.11694336 7.14257812 C19.57408773 11.54401802 26.99178954 16.00471741 34.32202148 20.61474609 C30.7315641 23.63116354 27.07297464 26.02891533 22.98999023 28.32958984 C22.09682854 28.83601768 22.09682854 28.83601768 21.18562317 29.35267639 C19.29590478 30.42335864 17.40295151 31.48814374 15.50952148 32.55224609 C13.63176369 33.61119025 11.75475761 34.6714235 9.87893677 35.73379517 C8.67034959 36.41754182 7.46030338 37.09871648 6.24874878 37.77719116 C2.9673652 39.62656655 -0.15726861 41.60022722 -3.25219727 43.74365234 C-6.67797852 45.61474609 -6.67797852 45.61474609 -9.00073242 44.94946289 C-12.04083306 43.43384825 -14.9930774 41.82141749 -17.93969727 40.13037109 C-18.53039505 39.79229431 -19.12109283 39.45421753 -19.72969055 39.105896 C-20.97691223 38.39128423 -22.22325038 37.67512847 -23.46875 36.95751953 C-25.34066615 35.87904139 -27.21509438 34.80505085 -29.09008789 33.73193359 C-35.99976919 29.77058909 -42.86930604 25.74791327 -49.67797852 21.61474609 C-47.27683383 19.0891589 -45.09088192 17.06966513 -42.01782227 15.42333984 C-41.31560547 15.04081055 -40.61338867 14.65828125 -39.88989258 14.26416016 C-39.13933594 13.86422852 -38.3887793 13.46429687 -37.61547852 13.05224609 C-32.49613684 10.29340778 -27.43061036 7.49872664 -22.47875977 4.44677734 C-21.63385986 3.93252197 -20.78895996 3.4182666 -19.91845703 2.88842773 C-18.28535134 1.88928916 -16.6616426 0.87458994 -15.04882812 -0.15698242 C-14.3025415 -0.60871826 -13.55625488 -1.0604541 -12.78735352 -1.52587891 C-11.81233887 -2.13737793 -11.81233887 -2.13737793 -10.81762695 -2.76123047 C-6.81628853 -3.92821141 -3.53504839 -1.82859555 0 0 Z " fill="#004BBC" transform="translate(135.677978515625,13.38525390625)"/>
<path d="M0 0 C4.00931435 1.48467308 7.59498489 3.38582573 11.296875 5.51953125 C11.88994446 5.85997971 12.48301392 6.20042816 13.09405518 6.55119324 C14.98114822 7.63523863 16.86565471 8.72368664 18.75 9.8125 C20.62057809 10.88968326 22.49169216 11.96592751 24.36309814 13.04167175 C26.07208754 14.0246362 27.77973827 15.00992701 29.48730469 15.99536133 C33.63880676 18.36455673 37.82155965 20.67864425 42 23 C42 39.17 42 55.34 42 72 C37.558752 70.519584 34.48824359 69.29877427 30.5859375 66.98828125 C29.57660156 66.39466797 28.56726563 65.80105469 27.52734375 65.18945312 C26.48707031 64.57005859 25.44679688 63.95066406 24.375 63.3125 C23.35792969 62.71244141 22.34085938 62.11238281 21.29296875 61.49414062 C19.22687982 60.27517434 17.17595744 59.03015318 15.140625 57.76049805 C12.04480982 55.89589648 12.04480982 55.89589648 8.578125 54.85864258 C4.63247379 53.35774437 2.65477893 52.32031372 0 49 C-2.04705992 40.94666833 -1.11711284 32.27693831 -0.75 24.0625 C-0.68978075 21.73386044 -0.63503245 19.40507253 -0.5859375 17.07617188 C-0.45395387 11.38087105 -0.25346016 5.69111937 0 0 Z " fill="#FCFCFC" transform="translate(26,139)"/>
<path d="M0 0 C8.7208738 3.48834952 16.7699944 8.47349692 25 13 C25 29.17 25 45.34 25 62 C20.41856903 60.47285634 17.14954387 59.10859949 13.078125 56.734375 C11.96953125 56.09113281 10.8609375 55.44789063 9.71875 54.78515625 C8.56245638 54.10684518 7.40620658 53.42845942 6.25 52.75 C5.12078125 52.09386719 3.9915625 51.43773437 2.828125 50.76171875 C-3.81377381 46.89496516 -10.42166531 42.97386639 -17 39 C-16.34755235 34.2464528 -14.45648671 30.35087606 -12.40234375 26.07421875 C-12.04862198 25.32662796 -11.69490021 24.57903717 -11.33045959 23.80879211 C-10.20466929 21.43252067 -9.07121235 19.06000047 -7.9375 16.6875 C-7.17071442 15.07250745 -6.40443268 13.45727558 -5.63867188 11.84179688 C-3.7649396 7.89173519 -1.88432513 3.94501878 0 0 Z " fill="#00C600" transform="translate(102,183)"/>
<path d="M0 0 C1.26171875 1.52197266 1.26171875 1.52197266 2.6875 3.6640625 C3.21714355 4.45039062 3.74678711 5.23671875 4.29248047 6.046875 C4.85596191 6.89765625 5.41944336 7.7484375 6 8.625 C7.16771562 10.36823027 8.3370031 12.1104086 9.5078125 13.8515625 C10.09208008 14.72071289 10.67634766 15.58986328 11.27832031 16.48535156 C12.85059228 18.78177829 14.46373903 21.0350376 16.1171875 23.2734375 C16.58511719 23.90813965 17.05304688 24.5428418 17.53515625 25.19677734 C18.41253668 26.37759583 19.29770161 27.55267922 20.19140625 28.72119141 C21.3671875 30.3125 21.3671875 30.3125 23 33 C21.30706654 38.07880038 16.23900092 39.69848288 11.75 42.25 C10.79480469 42.8171875 9.83960938 43.384375 8.85546875 43.96875 C7.92863281 44.49984375 7.00179687 45.0309375 6.046875 45.578125 C5.19963867 46.06700195 4.35240234 46.55587891 3.47949219 47.05957031 C0.39635424 48.22895269 -0.88740668 48.04284119 -4 47 C-6.12318136 45.9402362 -8.20789079 44.80188931 -10.26171875 43.61328125 C-10.85241653 43.27378952 -11.44311432 42.93429779 -12.05171204 42.58451843 C-13.93416741 41.50037509 -15.81078591 40.40654532 -17.6875 39.3125 C-18.92867631 38.59638065 -20.17020994 37.88088021 -21.41210938 37.16601562 C-23.82306767 35.77593406 -26.22900637 34.37777939 -28.63037109 32.97119141 C-30.78902384 31.70840614 -32.95297675 30.45461187 -35.12353516 29.21240234 C-36.03796387 28.68211426 -36.95239258 28.15182617 -37.89453125 27.60546875 C-38.6935083 27.1468042 -39.49248535 26.68813965 -40.31567383 26.21557617 C-40.87150146 25.81443604 -41.4273291 25.4132959 -42 25 C-42 24.34 -42 23.68 -42 23 C-41.21463867 22.55197021 -40.42927734 22.10394043 -39.62011719 21.64233398 C-36.64524653 19.94487436 -33.67067451 18.24689358 -30.69628906 16.54858398 C-29.42036264 15.82019197 -28.14432491 15.09199489 -26.86816406 14.36401367 C-25.01075825 13.30441485 -23.15378168 12.244067 -21.296875 11.18359375 C-20.68598022 10.83525482 -20.07508545 10.48691589 -19.44567871 10.12802124 C-16.4405543 8.41088569 -13.4461902 6.6787072 -10.47070312 4.91064453 C-8.85325195 3.95134033 -8.85325195 3.95134033 -7.203125 2.97265625 C-6.24567383 2.399104 -5.28822266 1.82555176 -4.30175781 1.23461914 C-2 0 -2 0 0 0 Z " fill="#BB6400" transform="translate(70,44)"/>
<path d="M0 0 C3.49327482 0.66623266 6.09933625 2.0728748 9.1484375 3.87890625 C10.14810547 4.46720215 11.14777344 5.05549805 12.17773438 5.66162109 C13.76038086 6.60255615 13.76038086 6.60255615 15.375 7.5625 C17.53878804 8.83770541 19.70284957 10.11244686 21.8671875 11.38671875 C22.91616211 12.00595215 23.96513672 12.62518555 25.04589844 13.26318359 C28.84667289 15.49778768 32.66736394 17.69560735 36.5 19.875 C37.5828125 20.49117187 38.665625 21.10734375 39.78125 21.7421875 C40.5134375 22.15726563 41.245625 22.57234375 42 23 C42 23.66 42 24.32 42 25 C40.26826173 26.00005639 38.53648159 27.00004027 36.8046875 28 C35.70213623 28.63679688 34.59958496 29.27359375 33.46362305 29.9296875 C31.06814615 31.31251098 28.671068 32.692501 26.27270508 34.0703125 C18.76758857 38.38210241 18.76758857 38.38210241 11.33203125 42.8125 C10.6973291 43.19277344 10.06262695 43.57304688 9.40869141 43.96484375 C7.81208462 44.92507251 6.22401298 45.89945425 4.63671875 46.875 C1.44456087 48.23698736 0.29765443 47.90812094 -3 47 C-5.29589844 45.90844727 -5.29589844 45.90844727 -7.609375 44.56640625 C-8.44597656 44.08236328 -9.28257812 43.59832031 -10.14453125 43.09960938 C-11.00433594 42.59236328 -11.86414063 42.08511719 -12.75 41.5625 C-13.62527344 41.05912109 -14.50054687 40.55574219 -15.40234375 40.03710938 C-21.86872691 36.26254618 -21.86872691 36.26254618 -23 34 C-22.5875 33.39639648 -22.175 32.79279297 -21.75 32.17089844 C-10.79049703 16.14241161 -10.79049703 16.14241161 0 0 Z " fill="#A3BC32" transform="translate(186,44)"/>
<path d="M0 0 C2.10181238 4.322257 4.20135114 8.64560818 6.29882812 12.9699707 C7.01207733 14.43967182 7.72593732 15.90907667 8.44042969 17.37817383 C9.46972376 19.49482105 10.49678705 21.61253826 11.5234375 23.73046875 C11.84122162 24.38274948 12.15900574 25.03503021 12.48641968 25.70707703 C17 35.03415869 17 35.03415869 17 39 C9.98155528 43.05306079 2.96205679 47.10428326 -4.05961609 51.15174866 C-6.57003985 52.59881897 -9.08020586 54.04632671 -11.58935547 55.49560547 C-13.57926653 56.64489404 -15.57055811 57.79173634 -17.5625 58.9375 C-18.61566406 59.54464844 -19.66882813 60.15179688 -20.75390625 60.77734375 C-23 62 -23 62 -24 62 C-24.43340652 55.20713173 -24.72957657 48.41784186 -24.93383789 41.61425781 C-25.01900238 39.30463572 -25.13479245 36.99592193 -25.2824707 34.68945312 C-26.44808647 16.00733467 -26.44808647 16.00733467 -22.3571167 10.98181152 C-18.31998557 7.66282449 -13.85127225 5.59830158 -8.98141479 3.7802124 C-5.8425167 2.54422324 -3.39540722 0 0 0 Z " fill="#006400" transform="translate(154,183)"/>
<path d="M0 0 C7.59341966 4.14186527 15.15789793 8.30925173 22.6875 12.5625 C23.66783203 13.11357422 24.64816406 13.66464844 25.65820312 14.23242188 C27.56920383 15.31143969 29.47121787 16.40656665 31.36279297 17.51928711 C33.92353265 19.02430614 33.92353265 19.02430614 36.46923828 20.02954102 C38.88813134 21.13621537 40.32109344 21.92585266 42 24 C42.97885737 28.63822429 42.75357025 33.09950685 42.5 37.8125 C42.46390625 39.07771484 42.4278125 40.34292969 42.390625 41.64648438 C42.29640876 44.76739744 42.16498197 47.88215808 42 51 C27.8901177 51.34935059 14.06117366 50.22939223 0 49 C0 32.83 0 16.66 0 0 Z " fill="#FB8600" transform="translate(26,71)"/>
<path d="M0 0 C1.58835282 16.76135157 1.35870341 28.54130827 -9.51171875 41.85546875 C-10.39802979 42.89453369 -10.39802979 42.89453369 -11.30224609 43.95458984 C-13.86170046 47.03815451 -16.040478 50.34938655 -18.25 53.6875 C-19.47183175 55.47788484 -20.7110013 57.25734885 -22 59 C-22.33 59 -22.66 59 -23 59 C-23 43.49 -23 27.98 -23 12 C-19.57625 10.02 -16.1525 8.04 -12.625 6 C-11.54686035 5.37351563 -10.4687207 4.74703125 -9.35791016 4.1015625 C-8.51019043 3.61429688 -7.6624707 3.12703125 -6.7890625 2.625 C-5.91975098 2.12226563 -5.05043945 1.61953125 -4.15478516 1.1015625 C-2 0 -2 0 0 0 Z " fill="#7C7C7C" transform="translate(94,150)"/>
<path d="M0 0 C3.85765712 1.43492486 7.30521962 3.22961172 10.859375 5.30078125 C11.97570312 5.94853516 13.09203125 6.59628906 14.2421875 7.26367188 C15.41155205 7.94645411 16.58082237 8.62939774 17.75 9.3125 C20.03569186 10.64325061 22.32251518 11.97203684 24.609375 13.30078125 C26.1248291 14.18503784 26.1248291 14.18503784 27.67089844 15.0871582 C31.75616782 17.43448041 35.88130454 19.71183586 40 22 C40 30.91 40 39.82 40 49 C35.11292744 47.04517097 30.88369075 44.72847499 26.375 42.0625 C25.2303125 41.39831055 25.2303125 41.39831055 24.0625 40.72070312 C23.32773438 40.28822266 22.59296875 39.85574219 21.8359375 39.41015625 C21.17126465 39.01965088 20.5065918 38.62914551 19.82177734 38.22680664 C15.65477747 35.42069911 14.03626014 32.35175426 11.93359375 27.79296875 C11.65403336 27.18995438 11.37447296 26.58694 11.08644104 25.96565247 C10.49760564 24.69200753 9.91197195 23.4168781 9.3293457 22.14038086 C8.44383623 20.20137449 7.54802319 18.26740365 6.65039062 16.33398438 C4.17061552 10.95547911 1.78604449 5.65821031 0 0 Z " fill="#0062F6" transform="translate(87,39)"/>
<path d="M0 0 C13.2118749 -1.2496453 22.70145484 5.47347181 33.359375 12.5546875 C33.359375 13.2146875 33.359375 13.8746875 33.359375 14.5546875 C30.11355968 16.37475832 26.86204599 18.18440135 23.609375 19.9921875 C22.68898437 20.50845703 21.76859375 21.02472656 20.8203125 21.55664062 C19.93085937 22.04970703 19.04140625 22.54277344 18.125 23.05078125 C17.30805664 23.50638428 16.49111328 23.9619873 15.64941406 24.43139648 C13.48240376 25.49434045 11.75214363 26.25540055 9.359375 26.5546875 C6.74212345 25.25970904 4.38113725 23.91809416 1.921875 22.3671875 C0.41507259 21.44756167 -1.09279322 20.52967659 -2.6015625 19.61328125 C-3.4069043 19.12069824 -4.21224609 18.62811523 -5.04199219 18.12060547 C-9.71350664 15.30558351 -14.46116609 12.62373437 -19.203125 9.9296875 C-21.01695041 8.89587426 -22.83075448 7.86202357 -24.64453125 6.828125 C-25.97647274 6.07015475 -27.30846718 5.31227747 -28.640625 4.5546875 C-28.640625 3.8946875 -28.640625 3.2346875 -28.640625 2.5546875 C-21.66836552 1.89259139 -14.69392861 1.31495465 -7.70898438 0.80371094 C-5.12680481 0.59414512 -2.5706113 0.31526365 0 0 Z " fill="#B9B9B9" transform="translate(58.640625,133.4453125)"/>
<path d="M0 0 C1.8085144 0.10441406 1.8085144 0.10441406 3.65356445 0.2109375 C7.37693321 0.43643422 11.09357904 0.71077231 14.8125 1 C16.72772461 1.14308594 16.72772461 1.14308594 18.68164062 1.2890625 C21.78811078 1.52175689 24.89418101 1.75879625 28 2 C28 2.66 28 3.32 28 4 C26.93265625 4.58265625 25.8653125 5.1653125 24.765625 5.765625 C23.25996779 6.59293359 21.75479954 7.42113241 20.25 8.25 C19.45319824 8.68803955 18.65639648 9.1260791 17.83544922 9.57739258 C13.32450802 12.0798221 8.88074249 14.65914399 4.4921875 17.37109375 C3.5959668 17.92313477 2.69974609 18.47517578 1.77636719 19.04394531 C0.02815193 20.1276456 -1.71360157 21.22184992 -3.44824219 22.32714844 C-4.64562012 23.06819824 -4.64562012 23.06819824 -5.8671875 23.82421875 C-6.92075439 24.49070435 -6.92075439 24.49070435 -7.99560547 25.1706543 C-10.53032789 26.21943043 -11.46527193 25.98488476 -14 25 C-15.61108033 24.2097462 -17.19840987 23.37011757 -18.765625 22.49609375 C-19.65507812 22.00302734 -20.54453125 21.50996094 -21.4609375 21.00195312 C-22.38132813 20.48568359 -23.30171875 19.96941406 -24.25 19.4375 C-25.18585938 18.91736328 -26.12171875 18.39722656 -27.0859375 17.86132812 C-29.39296302 16.57833944 -31.69751081 15.29110654 -34 14 C-34 13.34 -34 12.68 -34 12 C-30.79919877 9.95177774 -27.56090509 7.97169085 -24.3125 6 C-23.41982422 5.42765625 -22.52714844 4.8553125 -21.60742188 4.265625 C-14.18190188 -0.17383179 -8.52042464 -0.67945002 0 0 Z " fill="#BA000C" transform="translate(198,134)"/>
<path d="M0 0 C8.02892281 3.21156913 15.44079968 7.80044427 23 12 C23 27.18 23 42.36 23 58 C17.37663986 52.37663986 17.37663986 52.37663986 15.3515625 49.36328125 C14.90296875 48.70263672 14.454375 48.04199219 13.9921875 47.36132812 C13.54101562 46.68521484 13.08984375 46.00910156 12.625 45.3125 C11.72188949 43.97489882 10.81823496 42.63766481 9.9140625 41.30078125 C9.45620361 40.60404297 8.99834473 39.90730469 8.52661133 39.18945312 C7.00588563 36.93787915 7.00588563 36.93787915 5.10424805 34.74804688 C-0.65182197 27.6300203 -0.87352237 21.8254373 -0.4375 12.875 C-0.40591797 11.63234375 -0.37433594 10.3896875 -0.34179688 9.109375 C-0.25997806 6.07039044 -0.14540146 3.03649371 0 0 Z " fill="#F90010" transform="translate(162,150)"/>
<path d="M0 0 C1 3 1 3 -0.37109375 6.1953125 C-1.04878116 7.510993 -1.7384933 8.82052116 -2.4375 10.125 C-4.76305248 14.48522347 -6.98060491 18.72786453 -8.578125 23.4140625 C-13.27522064 36.48889032 -21.73677517 41.26973696 -33.97216797 47.16821289 C-36 48 -36 48 -38 48 C-40.65925379 26.03769224 -40.65925379 26.03769224 -36.66992188 19.98046875 C-32.89382149 16.65543838 -28.30519941 14.9358255 -23.66308594 13.13085938 C-18.67405979 11.01230702 -14.09694945 8.1270981 -9.4375 5.375 C-7.62564621 4.33773519 -5.81200593 3.30358089 -3.99609375 2.2734375 C-2.83871704 1.61480713 -2.83871704 1.61480713 -1.65795898 0.94287109 C-1.11083252 0.63172363 -0.56370605 0.32057617 0 0 Z " fill="#00327D" transform="translate(168,39)"/>
<path d="M0 0 C0.71647705 0.40702148 1.4329541 0.81404297 2.17114258 1.23339844 C8.24476007 4.63899199 8.24476007 4.63899199 14.69921875 7.203125 C18.7002324 8.6047873 20.43622259 9.55095244 23 13 C24.55194576 21.52622973 23.7184793 30.41417237 23 39 C20.99274749 38.35549879 18.99490074 37.68177377 17 37 C16.31067383 36.77973145 15.62134766 36.55946289 14.91113281 36.33251953 C9.1975141 34.35705286 3.57480976 32.06736779 0 27 C-2.18799753 18.24938168 -1.03106949 8.86626456 0 0 Z " fill="#D7F842" transform="translate(162,82)"/>
<path d="M0 0 C0.71647705 0.40702148 1.4329541 0.81404297 2.17114258 1.23339844 C8.24476007 4.63899199 8.24476007 4.63899199 14.69921875 7.203125 C18.7002324 8.6047873 20.43622259 9.55095244 23 13 C24.55194576 21.52622973 23.7184793 30.41417237 23 39 C20.99274749 38.35549879 18.99490074 37.68177377 17 37 C16.31067383 36.77973145 15.62134766 36.55946289 14.91113281 36.33251953 C9.1975141 34.35705286 3.57480976 32.06736779 0 27 C-2.18799753 18.24938168 -1.03106949 8.86626456 0 0 Z " fill="#A441F6" transform="translate(104,116)"/>
<path d="M0 0 C0 8.91 0 17.82 0 27 C-3.42375 28.98 -6.8475 30.96 -10.375 33 C-11.45313965 33.62648437 -12.5312793 34.25296875 -13.64208984 34.8984375 C-14.91366943 35.62933594 -14.91366943 35.62933594 -16.2109375 36.375 C-17.08024902 36.87773438 -17.94956055 37.38046875 -18.84521484 37.8984375 C-21 39 -21 39 -23 39 C-24.36355262 30.48399406 -25.73079345 21.33630923 -23 13 C-18.42410875 7.64634277 -7.42164913 0 0 0 Z " fill="#7C4200" transform="translate(94,82)"/>
<path d="M0 0 C2.37377438 22.37677985 2.37377438 22.37677985 -1.34326172 28.05029297 C-5.31259992 31.61286722 -10.0377414 33.23458108 -15 35 C-18.96 36.98 -18.96 36.98 -23 39 C-23 30.09 -23 21.18 -23 12 C-14.1875 7.125 -14.1875 7.125 -11.42260742 5.59814453 C-10.69920166 5.19708496 -9.9757959 4.79602539 -9.23046875 4.3828125 C-8.49207764 3.97434082 -7.75368652 3.56586914 -6.99291992 3.14501953 C-1.51897655 0 -1.51897655 0 0 0 Z " fill="#52217C" transform="translate(153,116)"/>
<path d="M0 0 C0.94875 0.55429688 1.8975 1.10859375 2.875 1.6796875 C3.88796143 2.22085205 3.88796143 2.22085205 4.92138672 2.77294922 C7.23313399 4.02104283 9.4906188 5.33937662 11.75 6.6796875 C12.53375 7.13085938 13.3175 7.58203125 14.125 8.046875 C14.86492187 8.48257813 15.60484375 8.91828125 16.3671875 9.3671875 C17.04120605 9.76292969 17.71522461 10.15867187 18.40966797 10.56640625 C19.13500732 11.11748047 19.13500732 11.11748047 19.875 11.6796875 C19.875 12.3396875 19.875 12.9996875 19.875 13.6796875 C16.46997856 15.72064915 13.04932888 17.73381637 9.625 19.7421875 C8.65691406 20.32291016 7.68882812 20.90363281 6.69140625 21.50195312 C5.75683594 22.04658203 4.82226562 22.59121094 3.859375 23.15234375 C3.00053711 23.66031494 2.14169922 24.16828613 1.25683594 24.69165039 C-1.52005237 25.84356377 -2.38539424 25.80468897 -5.125 24.6796875 C-8.46139408 23.02297738 -11.65506812 21.11374318 -14.875 19.2421875 C-15.76316406 18.73880859 -16.65132813 18.23542969 -17.56640625 17.71679688 C-18.40558594 17.23146484 -19.24476562 16.74613281 -20.109375 16.24609375 C-20.87991211 15.80209229 -21.65044922 15.35809082 -22.44433594 14.90063477 C-23.27626465 14.29626587 -23.27626465 14.29626587 -24.125 13.6796875 C-24.125 13.0196875 -24.125 12.3596875 -24.125 11.6796875 C-20.76953107 9.60453605 -17.38816645 7.57593495 -14 5.5546875 C-13.04867187 4.96558594 -12.09734375 4.37648438 -11.1171875 3.76953125 C-4.03115916 -0.41319381 -4.03115916 -0.41319381 0 0 Z " fill="#7C31BA" transform="translate(130.125,100.3203125)"/>
<path d="M0 0 C3.05479991 1.47829327 5.96367648 3.13314033 8.875 4.875 C9.65875 5.32230469 10.4425 5.76960937 11.25 6.23046875 C11.98992187 6.66746094 12.72984375 7.10445312 13.4921875 7.5546875 C14.50321533 8.14999268 14.50321533 8.14999268 15.53466797 8.75732422 C16.01822754 9.16740723 16.50178711 9.57749023 17 10 C17 10.99 17 11.98 17 13 C14.0398118 15.48376041 10.62535278 17.33395886 7.3125 19.3125 C6.40048828 19.88806641 5.48847656 20.46363281 4.54882812 21.05664062 C3.21948242 21.85811523 3.21948242 21.85811523 1.86328125 22.67578125 C1.05157471 23.16989502 0.23986816 23.66400879 -0.59643555 24.1730957 C-3 25 -3 25 -5.54101562 24.28759766 C-6.35248047 23.86269043 -7.16394531 23.4377832 -8 23 C-8.70229736 22.637854 -9.40459473 22.27570801 -10.12817383 21.90258789 C-12.36313875 20.63405172 -14.59033267 19.35333149 -16.8125 18.0625 C-17.60076172 17.61970703 -18.38902344 17.17691406 -19.20117188 16.72070312 C-20.31782227 16.07198242 -20.31782227 16.07198242 -21.45703125 15.41015625 C-22.13741455 15.01965088 -22.81779785 14.62914551 -23.51879883 14.22680664 C-24.00759521 13.82196045 -24.4963916 13.41711426 -25 13 C-25 12.01 -25 11.02 -25 10 C-22.22381143 7.69979994 -18.99774671 6.04031373 -15.875 4.25 C-15.0190625 3.73050781 -14.163125 3.21101562 -13.28125 2.67578125 C-5.20623898 -2.00772514 -5.20623898 -2.00772514 0 0 Z " fill="#009500" transform="translate(132,169)"/>
<path d="M0 0 C2 1 2 1 3 3 C1.92105469 3.59425781 0.84210938 4.18851563 -0.26953125 4.80078125 C-1.78411256 5.63755331 -3.298413 6.47483386 -4.8125 7.3125 C-6.00939453 7.97451416 -6.00939453 7.97451416 -7.23046875 8.64990234 C-14.20887202 12.52634014 -21.11286967 16.5243392 -27.97973633 20.5949707 C-28.73923584 21.0405835 -29.49873535 21.48619629 -30.28125 21.9453125 C-30.95220703 22.34250488 -31.62316406 22.73969727 -32.31445312 23.14892578 C-34 24 -34 24 -36 24 C-36 40.17 -36 56.34 -36 73 C-35.34 73.33 -34.68 73.66 -34 74 C-34.99 74 -35.98 74 -37 74 C-37.33 73.01 -37.66 72.02 -38 71 C-38.99 71 -39.98 71 -41 71 C-40.67 70.34 -40.34 69.68 -40 69 C-39.88232528 67.5505207 -39.82310732 66.09606004 -39.79467773 64.64208984 C-39.77473251 63.74130707 -39.75478729 62.84052429 -39.73423767 61.91244507 C-39.71752518 60.93844757 -39.70081268 59.96445007 -39.68359375 58.9609375 C-39.66281265 57.96494537 -39.64203156 56.96895325 -39.62062073 55.94277954 C-39.55510958 52.75359146 -39.49623296 49.56431942 -39.4375 46.375 C-39.39431627 44.21613707 -39.35070203 42.0572827 -39.30664062 39.8984375 C-39.19942664 34.5990477 -39.09766315 29.29957394 -39 24 C-39.90121582 23.71914551 -40.80243164 23.43829102 -41.73095703 23.14892578 C-44.52122398 22.16826885 -46.78485118 21.12908929 -49.3046875 19.6171875 C-50.05234375 19.17246094 -50.8 18.72773438 -51.5703125 18.26953125 C-52.33085937 17.80933594 -53.09140625 17.34914062 -53.875 16.875 C-54.65875 16.40707031 -55.4425 15.93914062 -56.25 15.45703125 C-58.16982472 14.30981892 -60.08630561 13.1573993 -62 12 C-60.27539062 10.85961914 -60.27539062 10.85961914 -58 10 C-55.86523438 10.79858398 -55.86523438 10.79858398 -53.59375 12.24609375 C-52.76746094 12.75333984 -51.94117188 13.26058594 -51.08984375 13.78320312 C-49.80787109 14.60208008 -49.80787109 14.60208008 -48.5 15.4375 C-46.80914102 16.50990754 -45.11144931 17.57163801 -43.40625 18.62109375 C-42.65666016 19.0998999 -41.90707031 19.57870605 -41.13476562 20.07202148 C-39.08495749 21.16697191 -39.08495749 21.16697191 -37.03710938 20.81713867 C-34.56240576 19.82446933 -32.31630116 18.6278573 -30 17.3046875 C-29.03537842 16.75635254 -28.07075684 16.20801758 -27.0769043 15.64306641 C-26.06152588 15.05960449 -25.04614746 14.47614258 -24 13.875 C-22.96721924 13.2876709 -21.93443848 12.7003418 -20.87036133 12.09521484 C-14.52743854 8.48053292 -8.22776671 4.80601102 -2.01171875 0.9765625 C-1.34785156 0.65429688 -0.68398437 0.33203125 0 0 Z " fill="#150001" transform="translate(224,138)"/>
<path d="M0 0 C0.66 0.33 1.32 0.66 2 1 C0.51511051 4.95327721 -1.52004896 6.18888752 -5.171875 8.171875 C-6.22310547 8.7484082 -7.27433594 9.32494141 -8.35742188 9.91894531 C-9.47697266 10.52319336 -10.59652344 11.12744141 -11.75 11.75 C-12.87986328 12.38776367 -14.00972656 13.02552734 -15.17382812 13.68261719 C-24.65622621 19.00592558 -24.65622621 19.00592558 -29.734375 20.78125 C-33.73740835 22.27263425 -36.32168185 23.49548879 -39 27 C-40.92939849 35.49860983 -40.49879556 44.35421036 -40 53 C-40.66 52.67 -41.32 52.34 -42 52 C-42 43.42 -42 34.84 -42 26 C-47.28 23.03 -52.56 20.06 -58 17 C-56.68 16.34 -55.36 15.68 -54 15 C-50.94140625 16.37109375 -50.94140625 16.37109375 -47.5625 18.4375 C-43.4205336 21.20663539 -43.4205336 21.20663539 -38.69628906 21.80786133 C-35.36977565 20.81117237 -32.67580269 19.31609271 -29.66796875 17.578125 C-29.07252762 17.2362616 -28.47708649 16.89439819 -27.86360168 16.54217529 C-25.96772073 15.45130058 -24.07770737 14.35066985 -22.1875 13.25 C-20.92938789 12.52543112 -19.67092726 11.80146703 -18.41210938 11.078125 C-13.28764579 8.12385889 -8.1929246 5.15710385 -3.23828125 1.921875 C-2.16964844 1.28765625 -1.10101563 0.6534375 0 0 Z " fill="#101204" transform="translate(226,69)"/>
<path d="M0 0 C3.3639775 1.31498193 6.34117724 2.87218034 9.46582031 4.68164062 C10.02968445 5.00700806 10.59354858 5.33237549 11.17449951 5.66760254 C12.35580662 6.35081646 13.53558129 7.03668638 14.71386719 7.72509766 C16.51801835 8.77849862 18.32739197 9.82244871 20.13769531 10.86523438 C28.98923675 16.00193207 28.98923675 16.00193207 31.26269531 18.27539062 C30.27269531 18.93539062 29.28269531 19.59539062 28.26269531 20.27539062 C24.36340601 18.07561515 20.46747441 15.87003759 16.57446289 13.65917969 C15.25146334 12.90890372 13.92758158 12.16018105 12.6027832 11.41308594 C10.69146733 10.33487089 8.78346308 9.25098759 6.87597656 8.16601562 C5.72911377 7.51665039 4.58225098 6.86728516 3.40063477 6.19824219 C0.4783725 4.40755226 -2.11862719 2.48014121 -4.73730469 0.27539062 C-2.73730469 -0.72460938 -2.73730469 -0.72460938 0 0 Z " fill="#190D00" transform="translate(36.7373046875,73.724609375)"/>
<path d="M0 0 C0.99 0.33 1.98 0.66 3 1 C2.01 2.485 2.01 2.485 1 4 C0.34 4 -0.32 4 -1 4 C-1 19.51 -1 35.02 -1 51 C-1.66 50.67 -2.32 50.34 -3 50 C-3.33 35.15 -3.66 20.3 -4 5 C-4.66 4.67 -5.32 4.34 -6 4 C-6 3.01 -6 2.02 -6 1 C-4.7934375 1.0309375 -4.7934375 1.0309375 -3.5625 1.0625 C-1.06645115 1.29633621 -1.06645115 1.29633621 0 0 Z " fill="#040404" transform="translate(72,158)"/>
<path d="M0 0 C4.74425022 1.33812186 8.59152415 3.40938922 12.75390625 5.9765625 C15.33960986 7.15474397 17.19016386 7.18765162 20 7 C19.625 8.9375 19.625 8.9375 19 11 C18.01 11.495 18.01 11.495 17 12 C16.67 20.58 16.34 29.16 16 38 C15.34 37.67 14.68 37.34 14 37 C14 28.42 14 19.84 14 11 C8.72 8.03 3.44 5.06 -2 2 C-1.34 1.34 -0.68 0.68 0 0 Z " fill="#181C07" transform="translate(170,84)"/>
<path d="M0 0 C5.08022167 2.06558463 9.70016423 4.80821964 14.4296875 7.5703125 C15.40421875 8.13363281 16.37875 8.69695312 17.3828125 9.27734375 C19.77630712 10.66181613 22.1667713 12.05124791 24.5546875 13.4453125 C24.2246875 14.4353125 23.8946875 15.4253125 23.5546875 16.4453125 C18.60831511 14.67020305 14.13190693 12.1189915 9.5546875 9.5703125 C8.760625 9.13589844 7.9665625 8.70148438 7.1484375 8.25390625 C2.97902119 5.9398802 -0.82394476 3.58480469 -4.4453125 0.4453125 C-2.4453125 -0.5546875 -2.4453125 -0.5546875 0 0 Z " fill="#191919" transform="translate(42.4453125,144.5546875)"/>
<path d="M0 0 C6.18336092 1.64473237 11.39655866 4.92553087 16.875 8.125 C17.84953125 8.68832031 18.8240625 9.25164063 19.828125 9.83203125 C22.22161962 11.21650363 24.6120838 12.60593541 27 14 C26.67 14.99 26.34 15.98 26 17 C22.29102741 15.60582632 18.92161688 13.92181521 15.48046875 11.9609375 C14.45888672 11.38085938 13.43730469 10.80078125 12.38476562 10.203125 C11.32966797 9.59984375 10.27457031 8.9965625 9.1875 8.375 C7.57584961 7.45847656 7.57584961 7.45847656 5.93164062 6.5234375 C3.28613924 5.01844115 0.6423375 3.51054209 -2 2 C-1.34 1.34 -0.68 0.68 0 0 Z " fill="#000A19" transform="translate(99,43)"/>
<path d="M0 0 C0.66 0.33 1.32 0.66 2 1 C0.63790536 4.28113465 -0.57926163 5.67769675 -3.6953125 7.359375 C-4.41074219 7.75253906 -5.12617188 8.14570312 -5.86328125 8.55078125 C-6.60964844 8.94652344 -7.35601562 9.34226562 -8.125 9.75 C-8.87910156 10.16121094 -9.63320312 10.57242188 -10.41015625 10.99609375 C-12.26805201 12.00735347 -14.13333832 13.00501405 -16 14 C-16.33 12.68 -16.66 11.36 -17 10 C-14.21605957 8.29949343 -11.42172475 6.61688375 -8.625 4.9375 C-7.8309375 4.45216797 -7.036875 3.96683594 -6.21875 3.46679688 C-5.45820313 3.01240234 -4.69765625 2.55800781 -3.9140625 2.08984375 C-2.8614624 1.45357056 -2.8614624 1.45357056 -1.78759766 0.80444336 C-0.90273682 0.4062439 -0.90273682 0.4062439 0 0 Z " fill="#0D0513" transform="translate(148,114)"/>
<path d="M0 0 C0.66 0.33 1.32 0.66 2 1 C0.85500131 4.43499608 0.43024564 4.61663819 -2.59765625 6.26171875 C-3.31630859 6.65810547 -4.03496094 7.05449219 -4.77539062 7.46289062 C-5.53013672 7.86701172 -6.28488281 8.27113281 -7.0625 8.6875 C-7.82111328 9.10322266 -8.57972656 9.51894531 -9.36132812 9.94726562 C-11.23633141 10.97321082 -13.11759343 11.98770244 -15 13 C-15.33 11.68 -15.66 10.36 -16 9 C-13.38029207 7.46935061 -10.75498357 5.95030252 -8.125 4.4375 C-7.37863281 3.99986328 -6.63226563 3.56222656 -5.86328125 3.11132812 C-5.14785156 2.70205078 -4.43242188 2.29277344 -3.6953125 1.87109375 C-3.03547363 1.48880615 -2.37563477 1.10651855 -1.69580078 0.71264648 C-1.13618652 0.47747314 -0.57657227 0.2422998 0 0 Z " fill="#121212" transform="translate(90,148)"/>
<path d="M0 0 C5.75 1.75 5.75 1.75 8 4 C7.01 4.66 6.02 5.32 5 6 C1.535 4.02 1.535 4.02 -2 2 C-1.34 1.34 -0.68 0.68 0 0 Z " fill="#13071C" transform="translate(112,118)"/>
</svg>
