<svg id="svg" version="1.1" xmlns="http://www.w3.org/2000/svg" xmlns:xlink="http://www.w3.org/1999/xlink" width="400" height="400" viewBox="0, 0, 400,400"><g id="svgg"><path id="path0" d="M94.900 132.598 C 94.551 132.995,94.400 134.859,94.400 138.783 L 94.400 144.400 88.771 144.400 C 81.290 144.400,82.000 143.019,82.000 157.571 L 82.000 169.600 76.371 169.600 C 69.180 169.600,69.600 169.180,69.600 176.371 L 69.600 182.000 63.971 182.000 C 56.780 182.000,57.200 181.580,57.200 188.771 L 57.200 194.400 51.371 194.400 C 43.933 194.400,44.400 193.933,44.400 201.371 L 44.400 207.200 38.771 207.200 C 31.295 207.200,32.000 205.849,32.000 220.171 L 32.000 232.000 26.371 232.000 C 19.180 232.000,19.600 231.580,19.600 238.771 L 19.600 244.400 13.971 244.400 C 9.627 244.400,8.213 244.530,7.771 244.971 C 6.919 245.823,6.919 279.777,7.771 280.629 C 8.241 281.098,10.453 281.200,20.171 281.200 L 32.000 281.200 32.000 286.829 C 32.000 294.310,30.619 293.600,45.171 293.600 L 57.200 293.600 57.200 299.429 C 57.200 307.138,55.827 306.400,70.171 306.400 L 82.000 306.400 82.000 312.029 C 82.000 319.510,80.619 318.800,95.171 318.800 L 107.200 318.800 107.200 324.429 C 107.200 331.905,105.849 331.200,120.171 331.200 L 132.000 331.200 132.000 336.829 C 132.000 344.411,129.681 343.600,151.371 343.600 L 169.600 343.600 169.600 349.429 C 169.600 357.138,168.227 356.400,182.571 356.400 L 194.400 356.400 194.400 362.029 C 194.400 369.599,192.228 368.800,212.800 368.800 C 233.372 368.800,231.200 369.599,231.200 362.029 L 231.200 356.400 243.229 356.400 C 257.804 356.400,256.400 357.143,256.400 349.429 L 256.400 343.600 262.029 343.600 C 266.373 343.600,267.787 343.470,268.229 343.029 C 268.670 342.587,268.800 341.173,268.800 336.829 L 268.800 331.200 274.429 331.200 C 278.773 331.200,280.187 331.070,280.629 330.629 C 281.070 330.187,281.200 328.773,281.200 324.429 L 281.200 318.800 286.829 318.800 C 291.173 318.800,292.587 318.670,293.029 318.229 C 293.470 317.787,293.600 316.373,293.600 312.029 L 293.600 306.400 299.429 306.400 C 303.947 306.400,305.386 306.272,305.829 305.829 C 306.272 305.386,306.400 303.947,306.400 299.429 L 306.400 293.600 312.029 293.600 C 319.220 293.600,318.800 294.020,318.800 286.829 L 318.800 281.200 324.429 281.200 C 331.620 281.200,331.200 281.620,331.200 274.429 L 331.200 268.800 336.829 268.800 C 341.173 268.800,342.587 268.670,343.029 268.229 C 343.874 267.383,343.874 245.817,343.029 244.971 C 342.559 244.502,340.347 244.400,330.629 244.400 L 318.800 244.400 318.800 238.771 C 318.800 231.580,319.220 232.000,312.029 232.000 L 306.400 232.000 306.400 226.371 C 306.400 219.163,306.850 219.600,299.429 219.600 L 293.600 219.600 293.600 213.971 C 293.600 206.495,294.951 207.200,280.629 207.200 L 268.800 207.200 268.800 201.371 C 268.800 193.950,269.237 194.400,262.029 194.400 L 256.400 194.400 256.400 188.771 C 256.400 181.563,256.850 182.000,249.429 182.000 L 243.600 182.000 243.600 176.371 C 243.600 169.180,244.020 169.600,236.829 169.600 L 231.200 169.600 231.200 163.971 C 231.200 156.495,232.551 157.200,218.229 157.200 L 206.400 157.200 206.400 151.371 C 206.400 143.933,206.867 144.400,199.429 144.400 L 193.600 144.400 193.600 138.771 C 193.600 134.427,193.470 133.013,193.029 132.571 C 192.338 131.881,181.200 131.720,181.200 132.400 C 181.200 132.620,180.880 132.800,180.488 132.800 C 180.097 132.800,179.517 133.160,179.200 133.600 C 178.883 134.040,178.303 134.400,177.912 134.400 C 177.520 134.400,177.200 134.580,177.200 134.800 C 177.200 135.020,176.840 135.200,176.400 135.200 C 175.960 135.200,175.600 135.380,175.600 135.600 C 175.600 135.820,175.330 136.000,175.000 136.000 C 174.670 136.000,174.400 136.180,174.400 136.400 C 174.400 136.620,173.860 136.800,173.200 136.800 C 172.540 136.800,172.000 136.980,172.000 137.200 C 172.000 137.420,171.460 137.600,170.800 137.600 C 170.140 137.600,169.600 137.780,169.600 138.000 C 169.600 138.220,169.240 138.400,168.800 138.400 C 168.360 138.400,168.000 138.580,168.000 138.800 C 168.000 139.020,167.724 139.200,167.387 139.200 C 166.701 139.200,164.000 141.742,164.000 142.387 C 164.000 142.614,163.820 142.800,163.600 142.800 C 163.363 142.800,163.200 144.267,163.200 146.400 L 163.200 150.000 166.312 150.000 C 168.965 150.000,169.508 150.118,170.000 150.800 C 170.317 151.240,170.813 151.600,171.102 151.600 C 171.912 151.600,174.243 154.121,174.545 155.324 C 174.694 155.916,174.992 156.400,175.208 156.400 C 175.423 156.400,175.600 156.760,175.600 157.200 C 175.600 157.640,175.780 158.000,176.000 158.000 C 176.220 158.000,176.400 158.186,176.400 158.413 C 176.400 159.058,179.101 161.600,179.787 161.600 C 180.124 161.600,180.400 161.780,180.400 162.000 C 180.400 162.220,180.720 162.400,181.112 162.400 C 181.503 162.400,182.083 162.760,182.400 163.200 C 182.717 163.640,183.213 164.000,183.502 164.000 C 184.184 164.000,186.800 166.616,186.800 167.298 C 186.800 167.587,187.160 168.083,187.600 168.400 C 188.040 168.717,188.400 169.297,188.400 169.688 C 188.400 170.080,188.580 170.400,188.800 170.400 C 189.020 170.400,189.200 170.676,189.200 171.013 C 189.200 171.351,189.869 172.296,190.686 173.113 L 192.171 174.600 199.561 174.726 C 206.282 174.840,207.011 174.921,207.622 175.626 C 207.992 176.051,208.414 176.400,208.560 176.400 C 209.050 176.400,211.600 179.166,211.600 179.698 C 211.600 179.987,211.960 180.483,212.400 180.800 C 212.840 181.117,213.200 181.697,213.200 182.088 C 213.200 182.480,213.380 182.800,213.600 182.800 C 213.820 182.800,214.000 183.076,214.000 183.413 C 214.000 184.209,216.591 186.800,217.387 186.800 C 217.724 186.800,218.000 186.980,218.000 187.200 C 218.000 187.420,218.320 187.600,218.712 187.600 C 219.103 187.600,219.683 187.960,220.000 188.400 C 220.317 188.840,220.813 189.200,221.102 189.200 C 221.812 189.200,224.243 191.674,224.581 192.741 C 224.731 193.213,225.022 193.600,225.227 193.600 C 225.432 193.600,225.600 193.960,225.600 194.400 C 225.600 194.840,225.780 195.200,226.000 195.200 C 226.220 195.200,226.400 195.476,226.400 195.813 C 226.400 196.609,228.991 199.200,229.787 199.200 C 230.124 199.200,230.400 199.380,230.400 199.600 C 230.400 199.820,230.720 200.000,231.112 200.000 C 231.503 200.000,232.083 200.360,232.400 200.800 C 232.717 201.240,233.213 201.600,233.502 201.600 C 234.184 201.600,236.800 204.216,236.800 204.898 C 236.800 205.187,237.160 205.683,237.600 206.000 C 238.040 206.317,238.400 206.897,238.400 207.288 C 238.400 207.680,238.580 208.000,238.800 208.000 C 239.020 208.000,239.200 208.186,239.200 208.413 C 239.200 208.951,241.849 211.600,242.387 211.600 C 242.614 211.600,242.800 211.780,242.800 212.000 C 242.800 212.220,243.120 212.400,243.512 212.400 C 243.903 212.400,244.483 212.760,244.800 213.200 C 245.117 213.640,245.613 214.000,245.902 214.000 C 246.584 214.000,249.200 216.616,249.200 217.298 C 249.200 217.587,249.560 218.083,250.000 218.400 C 250.440 218.717,250.800 219.297,250.800 219.688 C 250.800 220.080,250.980 220.400,251.200 220.400 C 251.420 220.400,251.600 220.676,251.600 221.013 C 251.600 221.351,252.269 222.296,253.086 223.113 L 254.572 224.600 261.967 224.733 C 268.664 224.853,269.426 224.938,270.029 225.633 C 270.394 226.055,270.904 226.400,271.160 226.400 C 271.923 226.400,274.254 228.964,274.545 230.124 C 274.694 230.716,274.992 231.200,275.208 231.200 C 275.423 231.200,275.600 231.560,275.600 232.000 C 275.600 232.440,275.780 232.800,276.000 232.800 C 276.220 232.800,276.400 233.076,276.400 233.413 C 276.400 234.209,278.991 236.800,279.787 236.800 C 280.124 236.800,280.400 236.980,280.400 237.200 C 280.400 237.420,280.720 237.600,281.112 237.600 C 281.503 237.600,282.083 237.960,282.400 238.400 C 282.717 238.840,283.213 239.200,283.502 239.200 C 284.069 239.200,286.800 241.765,286.800 242.298 C 286.800 242.477,287.160 242.883,287.600 243.200 C 288.040 243.517,288.400 244.097,288.400 244.488 C 288.400 244.880,288.580 245.200,288.800 245.200 C 289.020 245.200,289.200 245.476,289.200 245.813 C 289.200 246.499,291.742 249.200,292.387 249.200 C 292.614 249.200,292.800 249.380,292.800 249.600 C 292.800 249.820,293.120 250.000,293.512 250.000 C 293.903 250.000,294.483 250.360,294.800 250.800 C 295.117 251.240,295.613 251.600,295.902 251.600 C 296.584 251.600,299.200 254.216,299.200 254.898 C 299.200 255.187,299.560 255.683,300.000 256.000 C 301.229 256.886,301.229 269.114,300.000 270.000 C 299.560 270.317,299.200 270.813,299.200 271.102 C 299.200 271.912,296.679 274.243,295.476 274.545 C 294.884 274.694,294.400 274.992,294.400 275.208 C 294.400 275.423,294.040 275.600,293.600 275.600 C 293.160 275.600,292.800 275.780,292.800 276.000 C 292.800 276.220,292.614 276.400,292.387 276.400 C 291.742 276.400,289.200 279.101,289.200 279.787 C 289.200 280.124,289.020 280.400,288.800 280.400 C 288.580 280.400,288.400 280.720,288.400 281.112 C 288.400 281.503,288.040 282.083,287.600 282.400 C 287.160 282.717,286.800 283.213,286.800 283.502 C 286.800 284.184,284.184 286.800,283.502 286.800 C 283.213 286.800,282.717 287.160,282.400 287.600 C 282.083 288.040,281.503 288.400,281.112 288.400 C 280.720 288.400,280.400 288.580,280.400 288.800 C 280.400 289.020,280.124 289.200,279.787 289.200 C 279.101 289.200,276.400 291.742,276.400 292.387 C 276.400 292.614,276.220 292.800,276.000 292.800 C 275.780 292.800,275.600 293.160,275.600 293.600 C 275.600 294.040,275.423 294.400,275.208 294.400 C 274.992 294.400,274.694 294.884,274.545 295.476 C 274.243 296.679,271.912 299.200,271.102 299.200 C 270.813 299.200,270.317 299.560,270.000 300.000 C 269.683 300.440,269.103 300.800,268.712 300.800 C 268.320 300.800,268.000 300.980,268.000 301.200 C 268.000 301.420,267.724 301.600,267.387 301.600 C 267.049 301.600,266.149 302.224,265.387 302.987 C 264.624 303.749,264.000 304.649,264.000 304.987 C 264.000 305.324,263.820 305.600,263.600 305.600 C 263.380 305.600,263.200 305.920,263.200 306.312 C 263.200 306.703,262.840 307.283,262.400 307.600 C 261.960 307.917,261.600 308.323,261.600 308.502 C 261.600 308.680,260.976 309.451,260.213 310.213 C 259.451 310.976,258.680 311.600,258.502 311.600 C 258.323 311.600,257.917 311.960,257.600 312.400 C 257.283 312.840,256.703 313.200,256.312 313.200 C 255.920 313.200,255.600 313.380,255.600 313.600 C 255.600 313.820,255.324 314.000,254.987 314.000 C 254.649 314.000,253.749 314.624,252.987 315.387 C 252.224 316.149,251.600 317.049,251.600 317.387 C 251.600 317.724,251.420 318.000,251.200 318.000 C 250.980 318.000,250.800 318.320,250.800 318.712 C 250.800 319.103,250.440 319.683,250.000 320.000 C 249.560 320.317,249.200 320.813,249.200 321.102 C 249.200 321.816,246.569 324.400,245.842 324.400 C 245.520 324.400,244.974 324.683,244.629 325.029 C 244.057 325.600,243.943 325.600,243.371 325.029 C 243.026 324.683,242.570 324.400,242.358 324.400 C 241.780 324.400,239.200 321.705,239.200 321.102 C 239.200 320.813,238.840 320.317,238.400 320.000 C 237.960 319.683,237.600 319.103,237.600 318.712 C 237.600 318.320,237.420 318.000,237.200 318.000 C 236.980 318.000,236.800 317.724,236.800 317.387 C 236.800 317.049,236.176 316.149,235.413 315.387 C 234.651 314.624,233.751 314.000,233.413 314.000 C 233.076 314.000,232.800 313.820,232.800 313.600 C 232.800 313.380,232.480 313.200,232.088 313.200 C 231.697 313.200,231.117 312.840,230.800 312.400 C 230.483 311.960,229.987 311.600,229.698 311.600 C 229.166 311.600,226.400 309.050,226.400 308.560 C 226.400 308.414,226.049 307.989,225.620 307.617 C 224.879 306.975,224.834 306.245,224.720 293.156 L 224.600 279.372 223.113 277.886 C 222.296 277.069,221.351 276.400,221.013 276.400 C 220.676 276.400,220.400 276.220,220.400 276.000 C 220.400 275.780,220.040 275.600,219.600 275.600 C 219.160 275.600,218.800 275.423,218.800 275.208 C 218.800 274.992,218.316 274.694,217.724 274.545 C 216.521 274.243,214.000 271.912,214.000 271.102 C 214.000 270.813,213.640 270.317,213.200 270.000 C 212.760 269.683,212.400 269.103,212.400 268.712 C 212.400 268.320,212.220 268.000,212.000 268.000 C 211.780 268.000,211.600 267.724,211.600 267.387 C 211.600 266.701,209.058 264.000,208.413 264.000 C 208.186 264.000,208.000 263.820,208.000 263.600 C 208.000 263.380,207.680 263.200,207.288 263.200 C 206.897 263.200,206.317 262.840,206.000 262.400 C 205.683 261.960,205.187 261.600,204.898 261.600 C 204.331 261.600,201.600 259.035,201.600 258.502 C 201.600 258.323,201.240 257.917,200.800 257.600 C 200.052 257.061,200.000 256.565,200.000 249.912 C 200.000 245.437,199.852 242.800,199.600 242.800 C 199.380 242.800,199.200 242.614,199.200 242.387 C 199.200 241.742,196.499 239.200,195.813 239.200 C 195.476 239.200,195.200 239.020,195.200 238.800 C 195.200 238.580,194.880 238.400,194.488 238.400 C 194.097 238.400,193.517 238.040,193.200 237.600 C 192.883 237.160,192.477 236.800,192.298 236.800 C 191.765 236.800,189.200 234.069,189.200 233.502 C 189.200 233.213,188.840 232.717,188.400 232.400 C 187.653 231.862,187.600 231.365,187.600 224.912 C 187.600 220.571,187.451 218.000,187.200 218.000 C 186.980 218.000,186.800 217.724,186.800 217.387 C 186.800 216.591,184.209 214.000,183.413 214.000 C 183.076 214.000,182.800 213.820,182.800 213.600 C 182.800 213.380,182.480 213.200,182.088 213.200 C 181.697 213.200,181.117 212.840,180.800 212.400 C 180.483 211.960,179.987 211.600,179.698 211.600 C 179.166 211.600,176.400 209.050,176.400 208.560 C 176.400 208.414,176.051 207.992,175.626 207.622 C 174.921 207.011,174.840 206.282,174.726 199.561 L 174.600 192.171 173.113 190.686 C 172.296 189.869,171.351 189.200,171.013 189.200 C 170.676 189.200,170.400 189.020,170.400 188.800 C 170.400 188.580,170.080 188.400,169.688 188.400 C 169.297 188.400,168.717 188.040,168.400 187.600 C 168.083 187.160,167.587 186.800,167.298 186.800 C 167.010 186.800,166.149 186.176,165.387 185.413 C 164.624 184.651,164.000 183.790,164.000 183.502 C 164.000 183.213,163.640 182.717,163.200 182.400 C 162.424 181.840,162.400 181.365,162.400 166.312 L 162.400 150.800 152.600 150.800 C 146.333 150.800,142.800 150.944,142.800 151.200 C 142.800 151.420,142.614 151.600,142.387 151.600 C 141.742 151.600,139.200 154.301,139.200 154.987 C 139.200 155.324,139.020 155.600,138.800 155.600 C 138.548 155.600,138.400 158.333,138.400 163.000 C 138.400 167.667,138.548 170.400,138.800 170.400 C 139.020 170.400,139.200 170.676,139.200 171.013 C 139.200 171.916,141.768 174.327,143.072 174.649 C 143.692 174.803,144.491 175.259,144.847 175.664 C 145.203 176.069,145.704 176.400,145.960 176.400 C 146.599 176.400,149.200 179.048,149.200 179.698 C 149.200 179.987,149.560 180.483,150.000 180.800 C 150.747 181.338,150.800 181.835,150.800 188.288 C 150.800 192.629,150.949 195.200,151.200 195.200 C 151.420 195.200,151.600 195.476,151.600 195.813 C 151.600 196.151,152.224 197.051,152.987 197.813 C 153.749 198.576,154.649 199.200,154.987 199.200 C 155.324 199.200,155.600 199.380,155.600 199.600 C 155.600 199.820,155.920 200.000,156.312 200.000 C 156.703 200.000,157.283 200.360,157.600 200.800 C 157.917 201.240,158.323 201.600,158.502 201.600 C 159.035 201.600,161.600 204.331,161.600 204.898 C 161.600 205.187,161.960 205.683,162.400 206.000 C 163.172 206.556,163.200 207.035,163.200 219.688 C 163.200 228.163,163.341 232.800,163.600 232.800 C 163.820 232.800,164.000 233.076,164.000 233.413 C 164.000 234.209,166.591 236.800,167.387 236.800 C 167.724 236.800,168.000 236.980,168.000 237.200 C 168.000 237.420,168.320 237.600,168.712 237.600 C 169.103 237.600,169.683 237.960,170.000 238.400 C 170.317 238.840,170.813 239.200,171.102 239.200 C 171.812 239.200,174.243 241.674,174.581 242.741 C 174.731 243.213,175.022 243.600,175.227 243.600 C 175.444 243.600,175.600 246.613,175.600 250.800 C 175.600 255.333,175.748 258.000,176.000 258.000 C 176.220 258.000,176.400 258.186,176.400 258.413 C 176.400 259.058,179.101 261.600,179.787 261.600 C 180.124 261.600,180.400 261.780,180.400 262.000 C 180.400 262.220,180.720 262.400,181.112 262.400 C 181.503 262.400,182.083 262.760,182.400 263.200 C 182.717 263.640,183.213 264.000,183.502 264.000 C 184.184 264.000,186.800 266.616,186.800 267.298 C 186.800 267.587,187.160 268.083,187.600 268.400 C 188.347 268.938,188.400 269.435,188.400 275.888 C 188.400 280.229,188.549 282.800,188.800 282.800 C 189.020 282.800,189.200 283.076,189.200 283.413 C 189.200 284.099,191.742 286.800,192.387 286.800 C 192.614 286.800,192.800 286.980,192.800 287.200 C 192.800 287.420,193.120 287.600,193.512 287.600 C 193.903 287.600,194.483 287.960,194.800 288.400 C 195.117 288.840,195.613 289.200,195.902 289.200 C 196.469 289.200,199.200 291.765,199.200 292.298 C 199.200 292.477,199.560 292.883,200.000 293.200 C 200.748 293.739,200.800 294.235,200.800 300.888 C 200.800 305.363,200.948 308.000,201.200 308.000 C 201.420 308.000,201.600 308.186,201.600 308.413 C 201.600 309.058,204.301 311.600,204.987 311.600 C 205.324 311.600,205.600 311.780,205.600 312.000 C 205.600 312.220,205.920 312.400,206.312 312.400 C 206.703 312.400,207.283 312.760,207.600 313.200 C 207.917 313.640,208.323 314.000,208.502 314.000 C 209.035 314.000,211.600 316.731,211.600 317.298 C 211.600 317.587,211.960 318.083,212.400 318.400 C 213.143 318.935,213.200 319.435,213.200 325.400 C 213.200 331.365,213.143 331.865,212.400 332.400 C 211.960 332.717,211.600 333.213,211.600 333.502 C 211.600 334.069,209.035 336.800,208.502 336.800 C 208.323 336.800,207.917 337.160,207.600 337.600 C 206.948 338.504,181.200 338.894,181.200 338.000 C 181.200 337.780,180.745 337.600,180.189 337.600 C 178.811 337.600,175.600 334.389,175.600 333.011 C 175.600 332.455,175.440 332.000,175.245 332.000 C 175.049 332.000,174.768 331.353,174.619 330.561 C 174.330 329.019,172.061 326.400,171.013 326.400 C 170.676 326.400,170.400 326.220,170.400 326.000 C 170.400 325.749,167.800 325.600,163.400 325.600 C 159.091 325.600,156.400 325.449,156.400 325.208 C 156.400 324.992,155.916 324.694,155.324 324.545 C 154.121 324.243,151.600 321.912,151.600 321.102 C 151.600 320.813,151.240 320.317,150.800 320.000 C 150.360 319.683,150.000 319.103,150.000 318.712 C 150.000 318.320,149.820 318.000,149.600 318.000 C 149.380 318.000,149.200 317.724,149.200 317.387 C 149.200 316.591,146.609 314.000,145.813 314.000 C 145.476 314.000,145.200 313.820,145.200 313.600 C 145.200 313.349,142.629 313.200,138.288 313.200 C 131.835 313.200,131.338 313.147,130.800 312.400 C 130.483 311.960,129.987 311.600,129.698 311.600 C 129.166 311.600,126.400 309.050,126.400 308.560 C 126.400 308.414,126.064 308.003,125.654 307.647 C 125.243 307.291,124.773 306.388,124.609 305.642 C 124.285 304.167,122.001 301.600,121.013 301.600 C 120.676 301.600,120.400 301.420,120.400 301.200 C 120.400 300.949,117.829 300.800,113.488 300.800 C 107.035 300.800,106.538 300.747,106.000 300.000 C 105.683 299.560,105.187 299.200,104.898 299.200 C 104.216 299.200,101.600 296.584,101.600 295.902 C 101.600 295.613,101.240 295.117,100.800 294.800 C 100.360 294.483,100.000 293.903,100.000 293.512 C 100.000 293.120,99.820 292.800,99.600 292.800 C 99.380 292.800,99.200 292.614,99.200 292.387 C 99.200 291.742,96.499 289.200,95.813 289.200 C 95.476 289.200,95.200 289.020,95.200 288.800 C 95.200 288.541,90.533 288.400,82.000 288.400 C 73.467 288.400,68.800 288.259,68.800 288.000 C 68.800 287.780,68.345 287.600,67.789 287.600 C 66.411 287.600,63.200 284.389,63.200 283.011 C 63.200 282.455,63.020 282.000,62.800 282.000 C 62.580 282.000,62.400 281.640,62.400 281.200 C 62.400 280.760,62.220 280.400,62.000 280.400 C 61.780 280.400,61.600 280.124,61.600 279.787 C 61.600 279.101,59.058 276.400,58.413 276.400 C 58.186 276.400,58.000 276.220,58.000 276.000 C 58.000 275.780,57.640 275.600,57.200 275.600 C 56.760 275.600,56.400 275.423,56.400 275.208 C 56.400 274.992,55.916 274.694,55.324 274.545 C 54.121 274.243,51.600 271.912,51.600 271.102 C 51.600 270.813,51.240 270.317,50.800 270.000 C 50.360 269.683,50.000 269.103,50.000 268.712 C 50.000 268.320,49.820 268.000,49.600 268.000 C 49.380 268.000,49.200 267.724,49.200 267.387 C 49.200 266.591,46.609 264.000,45.813 264.000 C 45.476 264.000,45.200 263.820,45.200 263.600 C 45.200 263.380,44.880 263.200,44.488 263.200 C 44.097 263.200,43.517 262.840,43.200 262.400 C 42.883 261.960,42.477 261.600,42.298 261.600 C 41.910 261.600,39.200 258.942,39.200 258.560 C 39.200 258.414,38.812 257.958,38.339 257.547 L 37.478 256.800 38.339 256.053 C 38.812 255.642,39.200 255.096,39.200 254.840 C 39.200 254.314,41.796 251.600,42.298 251.600 C 42.477 251.600,42.883 251.240,43.200 250.800 C 43.517 250.360,44.097 250.000,44.488 250.000 C 44.880 250.000,45.200 249.820,45.200 249.600 C 45.200 249.380,45.476 249.200,45.813 249.200 C 46.609 249.200,49.200 246.609,49.200 245.813 C 49.200 245.476,49.380 245.200,49.600 245.200 C 49.851 245.200,50.000 242.629,50.000 238.288 C 50.000 231.835,50.053 231.338,50.800 230.800 C 51.240 230.483,51.600 229.987,51.600 229.698 C 51.600 229.048,54.201 226.400,54.840 226.400 C 55.096 226.400,55.597 226.069,55.953 225.664 C 56.309 225.259,57.108 224.803,57.728 224.649 C 59.032 224.327,61.600 221.916,61.600 221.013 C 61.600 220.676,61.780 220.400,62.000 220.400 C 62.220 220.400,62.400 220.080,62.400 219.688 C 62.400 219.297,62.760 218.717,63.200 218.400 C 63.640 218.083,64.000 217.587,64.000 217.298 C 64.000 216.616,66.616 214.000,67.298 214.000 C 67.587 214.000,68.083 213.640,68.400 213.200 C 68.717 212.760,69.297 212.400,69.688 212.400 C 70.080 212.400,70.400 212.220,70.400 212.000 C 70.400 211.780,70.676 211.600,71.013 211.600 C 71.916 211.600,74.327 209.032,74.649 207.728 C 74.803 207.108,75.259 206.309,75.664 205.953 C 76.069 205.597,76.400 205.096,76.400 204.840 C 76.400 204.201,79.048 201.600,79.698 201.600 C 79.987 201.600,80.483 201.240,80.800 200.800 C 81.117 200.360,81.697 200.000,82.088 200.000 C 82.480 200.000,82.800 199.820,82.800 199.600 C 82.800 199.380,83.076 199.200,83.413 199.200 C 84.209 199.200,86.800 196.609,86.800 195.813 C 86.800 195.476,86.980 195.200,87.200 195.200 C 87.420 195.200,87.600 194.880,87.600 194.488 C 87.600 194.097,87.960 193.517,88.400 193.200 C 88.840 192.883,89.200 192.477,89.200 192.298 C 89.200 191.875,91.875 189.200,92.298 189.200 C 92.477 189.200,92.883 188.840,93.200 188.400 C 93.517 187.960,94.097 187.600,94.488 187.600 C 94.880 187.600,95.200 187.420,95.200 187.200 C 95.200 186.980,95.476 186.800,95.813 186.800 C 96.609 186.800,99.200 184.209,99.200 183.413 C 99.200 183.076,99.380 182.800,99.600 182.800 C 99.851 182.800,100.000 180.229,100.000 175.888 C 100.000 169.435,100.053 168.938,100.800 168.400 C 101.240 168.083,101.600 167.587,101.600 167.298 C 101.600 166.616,104.216 164.000,104.898 164.000 C 105.187 164.000,105.683 163.640,106.000 163.200 C 106.317 162.760,106.897 162.400,107.288 162.400 C 107.680 162.400,108.000 162.220,108.000 162.000 C 108.000 161.780,108.186 161.600,108.413 161.600 C 108.951 161.600,111.600 158.951,111.600 158.413 C 111.600 158.186,111.780 158.000,112.000 158.000 C 112.220 158.000,112.400 157.680,112.400 157.288 C 112.400 156.897,112.760 156.317,113.200 156.000 C 113.640 155.683,114.000 155.187,114.000 154.898 C 114.000 154.610,114.624 153.749,115.387 152.987 C 116.149 152.224,117.010 151.600,117.298 151.600 C 117.587 151.600,118.083 151.240,118.400 150.800 C 118.717 150.360,119.297 150.000,119.688 150.000 C 120.080 150.000,120.400 149.820,120.400 149.600 C 120.400 149.380,120.676 149.200,121.013 149.200 C 122.532 149.200,124.559 146.370,124.580 144.221 C 124.601 142.072,122.561 139.200,121.013 139.200 C 120.676 139.200,120.400 139.020,120.400 138.800 C 120.400 138.580,120.040 138.400,119.600 138.400 C 119.160 138.400,118.800 138.220,118.800 138.000 C 118.800 137.780,118.260 137.600,117.600 137.600 C 116.940 137.600,116.400 137.420,116.400 137.200 C 116.400 136.980,115.860 136.800,115.200 136.800 C 114.540 136.800,114.000 136.620,114.000 136.400 C 114.000 136.180,113.640 136.000,113.200 136.000 C 112.760 136.000,112.400 135.820,112.400 135.600 C 112.400 135.380,112.040 135.200,111.600 135.200 C 111.160 135.200,110.800 135.020,110.800 134.800 C 110.800 134.580,110.480 134.400,110.088 134.400 C 109.697 134.400,109.117 134.040,108.800 133.600 C 108.483 133.160,107.993 132.800,107.712 132.800 C 107.430 132.800,107.200 132.620,107.200 132.400 C 107.200 131.721,95.507 131.909,94.900 132.598 " stroke="none" fill="#fcfcfc" fill-rule="evenodd"></path><path id="path1" d="M307.700 7.798 C 307.351 8.195,307.200 10.059,307.200 13.983 L 307.200 19.600 288.971 19.600 C 267.281 19.600,269.600 18.789,269.600 26.371 L 269.600 32.000 257.571 32.000 C 243.019 32.000,244.400 31.290,244.400 38.771 C 244.400 42.257,244.248 44.400,244.000 44.400 C 243.742 44.400,243.600 40.190,243.600 32.571 C 243.600 22.853,243.498 20.641,243.029 20.171 C 242.184 19.327,221.016 19.327,220.171 20.171 C 219.730 20.613,219.600 22.027,219.600 26.371 L 219.600 32.000 213.971 32.000 C 206.490 32.000,207.200 30.619,207.200 45.171 L 207.200 57.200 201.371 57.200 C 196.853 57.200,195.414 57.328,194.971 57.771 C 194.120 58.623,194.120 92.177,194.971 93.029 C 195.831 93.888,279.769 93.888,280.629 93.029 C 281.473 92.184,281.473 71.016,280.629 70.171 C 280.159 69.702,277.947 69.600,268.229 69.600 C 260.610 69.600,256.400 69.458,256.400 69.200 C 256.400 68.952,258.543 68.800,262.029 68.800 C 269.220 68.800,268.800 69.220,268.800 62.029 L 268.800 56.400 280.629 56.400 C 294.973 56.400,293.600 57.138,293.600 49.429 L 293.600 43.600 311.829 43.600 C 327.093 43.600,330.150 43.507,330.629 43.029 C 331.480 42.177,331.480 8.623,330.629 7.771 C 329.787 6.930,308.443 6.955,307.700 7.798 M120.100 94.998 C 119.749 95.397,119.600 97.299,119.600 101.383 L 119.600 107.200 113.971 107.200 C 109.627 107.200,108.213 107.330,107.771 107.771 C 106.971 108.572,106.914 132.800,107.712 132.800 C 107.993 132.800,108.483 133.160,108.800 133.600 C 109.117 134.040,109.697 134.400,110.088 134.400 C 110.480 134.400,110.800 134.580,110.800 134.800 C 110.800 135.020,111.160 135.200,111.600 135.200 C 112.040 135.200,112.400 135.380,112.400 135.600 C 112.400 135.820,112.760 136.000,113.200 136.000 C 113.640 136.000,114.000 136.180,114.000 136.400 C 114.000 136.620,114.540 136.800,115.200 136.800 C 115.860 136.800,116.400 136.980,116.400 137.200 C 116.400 137.420,116.940 137.600,117.600 137.600 C 118.260 137.600,118.800 137.780,118.800 138.000 C 118.800 138.220,119.160 138.400,119.600 138.400 C 120.040 138.400,120.400 138.580,120.400 138.800 C 120.400 139.020,120.676 139.200,121.013 139.200 C 122.561 139.200,124.601 142.072,124.580 144.221 C 124.559 146.370,122.532 149.200,121.013 149.200 C 120.676 149.200,120.400 149.380,120.400 149.600 C 120.400 149.848,122.571 150.000,126.112 150.000 C 131.365 150.000,131.870 150.064,132.400 150.800 C 132.717 151.240,133.213 151.600,133.502 151.600 C 134.138 151.600,136.800 154.195,136.800 154.815 C 136.800 155.831,137.956 156.501,138.600 155.857 C 138.930 155.527,139.200 155.058,139.200 154.815 C 139.200 154.257,141.833 151.600,142.387 151.600 C 142.614 151.600,142.800 151.420,142.800 151.200 C 142.800 150.944,146.333 150.800,152.600 150.800 L 162.400 150.800 162.400 153.600 C 162.400 155.140,162.503 156.400,162.629 156.400 C 163.027 156.400,164.000 155.275,164.000 154.815 C 164.000 154.240,166.640 151.600,167.215 151.600 C 167.675 151.600,168.800 150.627,168.800 150.229 C 168.800 150.103,167.540 150.000,166.000 150.000 L 163.200 150.000 163.200 146.400 C 163.200 144.267,163.363 142.800,163.600 142.800 C 163.820 142.800,164.000 142.614,164.000 142.387 C 164.000 141.742,166.701 139.200,167.387 139.200 C 167.724 139.200,168.000 139.020,168.000 138.800 C 168.000 138.580,168.360 138.400,168.800 138.400 C 169.240 138.400,169.600 138.220,169.600 138.000 C 169.600 137.780,170.140 137.600,170.800 137.600 C 171.460 137.600,172.000 137.420,172.000 137.200 C 172.000 136.980,172.540 136.800,173.200 136.800 C 173.860 136.800,174.400 136.620,174.400 136.400 C 174.400 136.180,174.670 136.000,175.000 136.000 C 175.330 136.000,175.600 135.820,175.600 135.600 C 175.600 135.380,175.960 135.200,176.400 135.200 C 176.840 135.200,177.200 135.020,177.200 134.800 C 177.200 134.580,177.520 134.400,177.912 134.400 C 178.303 134.400,178.883 134.040,179.200 133.600 C 179.517 133.160,180.097 132.800,180.488 132.800 C 181.466 132.800,181.601 108.743,180.629 107.771 C 180.187 107.330,178.773 107.200,174.429 107.200 L 168.800 107.200 168.800 101.371 C 168.800 96.853,168.672 95.414,168.229 94.971 C 167.377 94.119,120.851 94.145,120.100 94.998 " stroke="none" fill="#fc0404" fill-rule="evenodd"></path><path id="path2" d="M118.400 150.800 C 118.083 151.240,117.587 151.600,117.298 151.600 C 116.616 151.600,114.000 154.216,114.000 154.898 C 114.000 155.187,113.640 155.683,113.200 156.000 C 112.760 156.317,112.400 156.897,112.400 157.288 C 112.400 157.680,112.220 158.000,112.000 158.000 C 111.780 158.000,111.600 158.186,111.600 158.413 C 111.600 158.641,110.976 159.451,110.213 160.213 C 109.451 160.976,108.641 161.600,108.413 161.600 C 108.186 161.600,108.000 161.780,108.000 162.000 C 108.000 162.220,107.680 162.400,107.288 162.400 C 106.897 162.400,106.317 162.760,106.000 163.200 C 105.683 163.640,105.187 164.000,104.898 164.000 C 104.610 164.000,103.749 164.624,102.987 165.387 C 102.224 166.149,101.600 167.010,101.600 167.298 C 101.600 167.587,101.240 168.083,100.800 168.400 C 100.053 168.938,100.000 169.435,100.000 175.888 C 100.000 180.229,99.851 182.800,99.600 182.800 C 99.380 182.800,99.200 183.076,99.200 183.413 C 99.200 184.209,96.609 186.800,95.813 186.800 C 95.476 186.800,95.200 186.980,95.200 187.200 C 95.200 187.420,94.880 187.600,94.488 187.600 C 94.097 187.600,93.517 187.960,93.200 188.400 C 92.883 188.840,92.477 189.200,92.298 189.200 C 92.120 189.200,91.349 189.824,90.587 190.587 C 89.824 191.349,89.200 192.120,89.200 192.298 C 89.200 192.477,88.840 192.883,88.400 193.200 C 87.960 193.517,87.600 194.097,87.600 194.488 C 87.600 194.880,87.420 195.200,87.200 195.200 C 86.980 195.200,86.800 195.476,86.800 195.813 C 86.800 196.609,84.209 199.200,83.413 199.200 C 83.076 199.200,82.800 199.380,82.800 199.600 C 82.800 199.820,82.480 200.000,82.088 200.000 C 81.697 200.000,81.117 200.360,80.800 200.800 C 80.483 201.240,79.987 201.600,79.698 201.600 C 79.048 201.600,76.400 204.201,76.400 204.840 C 76.400 205.096,76.069 205.597,75.664 205.953 C 75.259 206.309,74.803 207.108,74.649 207.728 C 74.327 209.032,71.916 211.600,71.013 211.600 C 70.676 211.600,70.400 211.780,70.400 212.000 C 70.400 212.220,70.080 212.400,69.688 212.400 C 69.297 212.400,68.717 212.760,68.400 213.200 C 68.083 213.640,67.587 214.000,67.298 214.000 C 66.616 214.000,64.000 216.616,64.000 217.298 C 64.000 217.587,63.640 218.083,63.200 218.400 C 62.760 218.717,62.400 219.297,62.400 219.688 C 62.400 220.080,62.220 220.400,62.000 220.400 C 61.780 220.400,61.600 220.676,61.600 221.013 C 61.600 221.916,59.032 224.327,57.728 224.649 C 57.108 224.803,56.309 225.259,55.953 225.664 C 55.597 226.069,55.096 226.400,54.840 226.400 C 54.201 226.400,51.600 229.048,51.600 229.698 C 51.600 229.987,51.240 230.483,50.800 230.800 C 50.053 231.338,50.000 231.835,50.000 238.288 C 50.000 242.629,49.851 245.200,49.600 245.200 C 49.380 245.200,49.200 245.476,49.200 245.813 C 49.200 246.609,46.609 249.200,45.813 249.200 C 45.476 249.200,45.200 249.380,45.200 249.600 C 45.200 249.820,44.880 250.000,44.488 250.000 C 44.097 250.000,43.517 250.360,43.200 250.800 C 42.883 251.240,42.477 251.600,42.298 251.600 C 41.796 251.600,39.200 254.314,39.200 254.840 C 39.200 255.096,38.812 255.642,38.339 256.053 L 37.478 256.800 38.339 257.547 C 38.812 257.958,39.200 258.414,39.200 258.560 C 39.200 258.942,41.910 261.600,42.298 261.600 C 42.477 261.600,42.883 261.960,43.200 262.400 C 43.517 262.840,44.097 263.200,44.488 263.200 C 44.880 263.200,45.200 263.380,45.200 263.600 C 45.200 263.820,45.476 264.000,45.813 264.000 C 46.609 264.000,49.200 266.591,49.200 267.387 C 49.200 267.724,49.380 268.000,49.600 268.000 C 49.820 268.000,50.000 268.320,50.000 268.712 C 50.000 269.103,50.360 269.683,50.800 270.000 C 51.240 270.317,51.600 270.813,51.600 271.102 C 51.600 271.912,54.121 274.243,55.324 274.545 C 55.916 274.694,56.400 274.992,56.400 275.208 C 56.400 275.423,56.760 275.600,57.200 275.600 C 57.640 275.600,58.000 275.780,58.000 276.000 C 58.000 276.220,58.186 276.400,58.413 276.400 C 59.058 276.400,61.600 279.101,61.600 279.787 C 61.600 280.124,61.780 280.400,62.000 280.400 C 62.220 280.400,62.400 280.760,62.400 281.200 C 62.400 281.640,62.580 282.000,62.800 282.000 C 63.020 282.000,63.200 282.455,63.200 283.011 C 63.200 284.389,66.411 287.600,67.789 287.600 C 68.345 287.600,68.800 287.780,68.800 288.000 C 68.800 288.259,73.467 288.400,82.000 288.400 C 90.533 288.400,95.200 288.541,95.200 288.800 C 95.200 289.020,95.476 289.200,95.813 289.200 C 96.499 289.200,99.200 291.742,99.200 292.387 C 99.200 292.614,99.380 292.800,99.600 292.800 C 99.820 292.800,100.000 293.120,100.000 293.512 C 100.000 293.903,100.360 294.483,100.800 294.800 C 101.240 295.117,101.600 295.613,101.600 295.902 C 101.600 296.584,104.216 299.200,104.898 299.200 C 105.187 299.200,105.683 299.560,106.000 300.000 C 106.538 300.747,107.035 300.800,113.488 300.800 C 117.829 300.800,120.400 300.949,120.400 301.200 C 120.400 301.420,120.676 301.600,121.013 301.600 C 122.001 301.600,124.285 304.167,124.609 305.642 C 124.773 306.388,125.243 307.291,125.654 307.647 C 126.064 308.003,126.400 308.414,126.400 308.560 C 126.400 309.050,129.166 311.600,129.698 311.600 C 129.987 311.600,130.483 311.960,130.800 312.400 C 131.338 313.147,131.835 313.200,138.288 313.200 C 142.629 313.200,145.200 313.349,145.200 313.600 C 145.200 313.820,145.476 314.000,145.813 314.000 C 146.609 314.000,149.200 316.591,149.200 317.387 C 149.200 317.724,149.380 318.000,149.600 318.000 C 149.820 318.000,150.000 318.320,150.000 318.712 C 150.000 319.103,150.360 319.683,150.800 320.000 C 151.240 320.317,151.600 320.813,151.600 321.102 C 151.600 321.912,154.121 324.243,155.324 324.545 C 155.916 324.694,156.400 324.992,156.400 325.208 C 156.400 325.449,159.091 325.600,163.400 325.600 C 167.800 325.600,170.400 325.749,170.400 326.000 C 170.400 326.220,170.676 326.400,171.013 326.400 C 172.061 326.400,174.330 329.019,174.619 330.561 C 174.768 331.353,175.049 332.000,175.245 332.000 C 175.440 332.000,175.600 332.455,175.600 333.011 C 175.600 334.389,178.811 337.600,180.189 337.600 C 180.745 337.600,181.200 337.780,181.200 338.000 C 181.200 338.894,206.948 338.504,207.600 337.600 C 207.917 337.160,208.323 336.800,208.502 336.800 C 209.035 336.800,211.600 334.069,211.600 333.502 C 211.600 333.213,211.960 332.717,212.400 332.400 C 213.143 331.865,213.200 331.365,213.200 325.400 C 213.200 319.435,213.143 318.935,212.400 318.400 C 211.960 318.083,211.600 317.587,211.600 317.298 C 211.600 316.731,209.035 314.000,208.502 314.000 C 208.323 314.000,207.917 313.640,207.600 313.200 C 207.283 312.760,206.703 312.400,206.312 312.400 C 205.920 312.400,205.600 312.220,205.600 312.000 C 205.600 311.780,205.324 311.600,204.987 311.600 C 204.301 311.600,201.600 309.058,201.600 308.413 C 201.600 308.186,201.420 308.000,201.200 308.000 C 200.948 308.000,200.800 305.363,200.800 300.888 C 200.800 294.235,200.748 293.739,200.000 293.200 C 199.560 292.883,199.200 292.477,199.200 292.298 C 199.200 291.765,196.469 289.200,195.902 289.200 C 195.613 289.200,195.117 288.840,194.800 288.400 C 194.483 287.960,193.903 287.600,193.512 287.600 C 193.120 287.600,192.800 287.420,192.800 287.200 C 192.800 286.980,192.614 286.800,192.387 286.800 C 191.742 286.800,189.200 284.099,189.200 283.413 C 189.200 283.076,189.020 282.800,188.800 282.800 C 188.549 282.800,188.400 280.229,188.400 275.888 C 188.400 269.435,188.347 268.938,187.600 268.400 C 187.160 268.083,186.800 267.587,186.800 267.298 C 186.800 266.616,184.184 264.000,183.502 264.000 C 183.213 264.000,182.717 263.640,182.400 263.200 C 182.083 262.760,181.503 262.400,181.112 262.400 C 180.720 262.400,180.400 262.220,180.400 262.000 C 180.400 261.780,180.124 261.600,179.787 261.600 C 179.101 261.600,176.400 259.058,176.400 258.413 C 176.400 258.186,176.220 258.000,176.000 258.000 C 175.748 258.000,175.600 255.333,175.600 250.800 C 175.600 246.613,175.444 243.600,175.227 243.600 C 175.022 243.600,174.731 243.213,174.581 242.741 C 174.243 241.674,171.812 239.200,171.102 239.200 C 170.813 239.200,170.317 238.840,170.000 238.400 C 169.683 237.960,169.103 237.600,168.712 237.600 C 168.320 237.600,168.000 237.420,168.000 237.200 C 168.000 236.980,167.724 236.800,167.387 236.800 C 166.591 236.800,164.000 234.209,164.000 233.413 C 164.000 233.076,163.820 232.800,163.600 232.800 C 163.341 232.800,163.200 228.163,163.200 219.688 C 163.200 207.035,163.172 206.556,162.400 206.000 C 161.960 205.683,161.600 205.187,161.600 204.898 C 161.600 204.331,159.035 201.600,158.502 201.600 C 158.323 201.600,157.917 201.240,157.600 200.800 C 157.283 200.360,156.703 200.000,156.312 200.000 C 155.920 200.000,155.600 199.820,155.600 199.600 C 155.600 199.380,155.324 199.200,154.987 199.200 C 154.649 199.200,153.749 198.576,152.987 197.813 C 152.224 197.051,151.600 196.151,151.600 195.813 C 151.600 195.476,151.420 195.200,151.200 195.200 C 150.949 195.200,150.800 192.629,150.800 188.288 C 150.800 181.835,150.747 181.338,150.000 180.800 C 149.560 180.483,149.200 179.987,149.200 179.698 C 149.200 179.048,146.599 176.400,145.960 176.400 C 145.704 176.400,145.203 176.069,144.847 175.664 C 144.491 175.259,143.692 174.803,143.072 174.649 C 141.768 174.327,139.200 171.916,139.200 171.013 C 139.200 170.676,139.020 170.400,138.800 170.400 C 138.549 170.400,138.400 167.829,138.400 163.488 C 138.400 157.035,138.347 156.538,137.600 156.000 C 137.160 155.683,136.800 155.187,136.800 154.898 C 136.800 154.610,136.176 153.749,135.413 152.987 C 134.651 152.224,133.790 151.600,133.502 151.600 C 133.213 151.600,132.717 151.240,132.400 150.800 C 131.865 150.057,131.365 150.000,125.400 150.000 C 119.435 150.000,118.935 150.057,118.400 150.800 M168.400 150.800 C 168.083 151.240,167.587 151.600,167.298 151.600 C 166.616 151.600,164.000 154.216,164.000 154.898 C 164.000 155.187,163.640 155.683,163.200 156.000 C 162.429 156.556,162.400 157.035,162.400 169.200 C 162.400 181.365,162.429 181.844,163.200 182.400 C 163.640 182.717,164.000 183.213,164.000 183.502 C 164.000 184.184,166.616 186.800,167.298 186.800 C 167.587 186.800,168.083 187.160,168.400 187.600 C 168.717 188.040,169.297 188.400,169.688 188.400 C 170.080 188.400,170.400 188.580,170.400 188.800 C 170.400 189.020,170.676 189.200,171.013 189.200 C 171.351 189.200,172.296 189.869,173.113 190.686 L 174.600 192.171 174.726 199.561 C 174.840 206.282,174.921 207.011,175.626 207.622 C 176.051 207.992,176.400 208.414,176.400 208.560 C 176.400 209.050,179.166 211.600,179.698 211.600 C 179.987 211.600,180.483 211.960,180.800 212.400 C 181.117 212.840,181.697 213.200,182.088 213.200 C 182.480 213.200,182.800 213.380,182.800 213.600 C 182.800 213.820,183.076 214.000,183.413 214.000 C 184.209 214.000,186.800 216.591,186.800 217.387 C 186.800 217.724,186.980 218.000,187.200 218.000 C 187.451 218.000,187.600 220.571,187.600 224.912 C 187.600 231.365,187.653 231.862,188.400 232.400 C 188.840 232.717,189.200 233.213,189.200 233.502 C 189.200 234.069,191.765 236.800,192.298 236.800 C 192.477 236.800,192.883 237.160,193.200 237.600 C 193.517 238.040,194.097 238.400,194.488 238.400 C 194.880 238.400,195.200 238.580,195.200 238.800 C 195.200 239.020,195.476 239.200,195.813 239.200 C 196.499 239.200,199.200 241.742,199.200 242.387 C 199.200 242.614,199.380 242.800,199.600 242.800 C 199.852 242.800,200.000 245.437,200.000 249.912 C 200.000 256.565,200.052 257.061,200.800 257.600 C 201.240 257.917,201.600 258.323,201.600 258.502 C 201.600 259.035,204.331 261.600,204.898 261.600 C 205.187 261.600,205.683 261.960,206.000 262.400 C 206.317 262.840,206.897 263.200,207.288 263.200 C 207.680 263.200,208.000 263.380,208.000 263.600 C 208.000 263.820,208.186 264.000,208.413 264.000 C 209.058 264.000,211.600 266.701,211.600 267.387 C 211.600 267.724,211.780 268.000,212.000 268.000 C 212.220 268.000,212.400 268.320,212.400 268.712 C 212.400 269.103,212.760 269.683,213.200 270.000 C 213.640 270.317,214.000 270.813,214.000 271.102 C 214.000 271.912,216.521 274.243,217.724 274.545 C 218.316 274.694,218.800 274.992,218.800 275.208 C 218.800 275.423,219.160 275.600,219.600 275.600 C 220.040 275.600,220.400 275.780,220.400 276.000 C 220.400 276.220,220.676 276.400,221.013 276.400 C 221.351 276.400,222.296 277.069,223.113 277.886 L 224.600 279.372 224.720 293.156 C 224.834 306.245,224.879 306.975,225.620 307.617 C 226.049 307.989,226.400 308.414,226.400 308.560 C 226.400 309.050,229.166 311.600,229.698 311.600 C 229.987 311.600,230.483 311.960,230.800 312.400 C 231.117 312.840,231.697 313.200,232.088 313.200 C 232.480 313.200,232.800 313.380,232.800 313.600 C 232.800 313.820,233.076 314.000,233.413 314.000 C 234.209 314.000,236.800 316.591,236.800 317.387 C 236.800 317.724,236.980 318.000,237.200 318.000 C 237.420 318.000,237.600 318.320,237.600 318.712 C 237.600 319.103,237.960 319.683,238.400 320.000 C 238.840 320.317,239.200 320.813,239.200 321.102 C 239.200 321.705,241.780 324.400,242.358 324.400 C 242.570 324.400,243.026 324.683,243.371 325.029 C 243.943 325.600,244.057 325.600,244.629 325.029 C 244.974 324.683,245.520 324.400,245.842 324.400 C 246.569 324.400,249.200 321.816,249.200 321.102 C 249.200 320.813,249.560 320.317,250.000 320.000 C 250.440 319.683,250.800 319.103,250.800 318.712 C 250.800 318.320,250.980 318.000,251.200 318.000 C 251.420 318.000,251.600 317.724,251.600 317.387 C 251.600 316.591,254.191 314.000,254.987 314.000 C 255.324 314.000,255.600 313.820,255.600 313.600 C 255.600 313.380,255.920 313.200,256.312 313.200 C 256.703 313.200,257.283 312.840,257.600 312.400 C 257.917 311.960,258.323 311.600,258.502 311.600 C 258.925 311.600,261.600 308.925,261.600 308.502 C 261.600 308.323,261.960 307.917,262.400 307.600 C 262.840 307.283,263.200 306.703,263.200 306.312 C 263.200 305.920,263.380 305.600,263.600 305.600 C 263.820 305.600,264.000 305.324,264.000 304.987 C 264.000 304.191,266.591 301.600,267.387 301.600 C 267.724 301.600,268.000 301.420,268.000 301.200 C 268.000 300.980,268.320 300.800,268.712 300.800 C 269.103 300.800,269.683 300.440,270.000 300.000 C 270.317 299.560,270.813 299.200,271.102 299.200 C 271.912 299.200,274.243 296.679,274.545 295.476 C 274.694 294.884,274.992 294.400,275.208 294.400 C 275.423 294.400,275.600 294.040,275.600 293.600 C 275.600 293.160,275.780 292.800,276.000 292.800 C 276.220 292.800,276.400 292.614,276.400 292.387 C 276.400 291.742,279.101 289.200,279.787 289.200 C 280.124 289.200,280.400 289.020,280.400 288.800 C 280.400 288.580,280.720 288.400,281.112 288.400 C 281.503 288.400,282.083 288.040,282.400 287.600 C 282.717 287.160,283.213 286.800,283.502 286.800 C 284.184 286.800,286.800 284.184,286.800 283.502 C 286.800 283.213,287.160 282.717,287.600 282.400 C 288.040 282.083,288.400 281.503,288.400 281.112 C 288.400 280.720,288.580 280.400,288.800 280.400 C 289.020 280.400,289.200 280.124,289.200 279.787 C 289.200 279.101,291.742 276.400,292.387 276.400 C 292.614 276.400,292.800 276.220,292.800 276.000 C 292.800 275.780,293.160 275.600,293.600 275.600 C 294.040 275.600,294.400 275.423,294.400 275.208 C 294.400 274.992,294.884 274.694,295.476 274.545 C 296.679 274.243,299.200 271.912,299.200 271.102 C 299.200 270.813,299.560 270.317,300.000 270.000 C 300.743 269.465,300.800 268.965,300.800 263.000 C 300.800 257.035,300.743 256.535,300.000 256.000 C 299.560 255.683,299.200 255.187,299.200 254.898 C 299.200 254.216,296.584 251.600,295.902 251.600 C 295.613 251.600,295.117 251.240,294.800 250.800 C 294.483 250.360,293.903 250.000,293.512 250.000 C 293.120 250.000,292.800 249.820,292.800 249.600 C 292.800 249.380,292.614 249.200,292.387 249.200 C 291.742 249.200,289.200 246.499,289.200 245.813 C 289.200 245.476,289.020 245.200,288.800 245.200 C 288.580 245.200,288.400 244.880,288.400 244.488 C 288.400 244.097,288.040 243.517,287.600 243.200 C 287.160 242.883,286.800 242.477,286.800 242.298 C 286.800 241.765,284.069 239.200,283.502 239.200 C 283.213 239.200,282.717 238.840,282.400 238.400 C 282.083 237.960,281.503 237.600,281.112 237.600 C 280.720 237.600,280.400 237.420,280.400 237.200 C 280.400 236.980,280.124 236.800,279.787 236.800 C 278.991 236.800,276.400 234.209,276.400 233.413 C 276.400 233.076,276.220 232.800,276.000 232.800 C 275.780 232.800,275.600 232.440,275.600 232.000 C 275.600 231.560,275.423 231.200,275.208 231.200 C 274.992 231.200,274.694 230.716,274.545 230.124 C 274.254 228.964,271.923 226.400,271.160 226.400 C 270.904 226.400,270.394 226.055,270.029 225.633 C 269.426 224.938,268.664 224.853,261.967 224.733 L 254.572 224.600 253.086 223.113 C 252.269 222.296,251.600 221.351,251.600 221.013 C 251.600 220.676,251.420 220.400,251.200 220.400 C 250.980 220.400,250.800 220.080,250.800 219.688 C 250.800 219.297,250.440 218.717,250.000 218.400 C 249.560 218.083,249.200 217.587,249.200 217.298 C 249.200 216.616,246.584 214.000,245.902 214.000 C 245.613 214.000,245.117 213.640,244.800 213.200 C 244.483 212.760,243.903 212.400,243.512 212.400 C 243.120 212.400,242.800 212.220,242.800 212.000 C 242.800 211.780,242.614 211.600,242.387 211.600 C 242.159 211.600,241.349 210.976,240.587 210.213 C 239.824 209.451,239.200 208.641,239.200 208.413 C 239.200 208.186,239.020 208.000,238.800 208.000 C 238.580 208.000,238.400 207.680,238.400 207.288 C 238.400 206.897,238.040 206.317,237.600 206.000 C 237.160 205.683,236.800 205.187,236.800 204.898 C 236.800 204.216,234.184 201.600,233.502 201.600 C 233.213 201.600,232.717 201.240,232.400 200.800 C 232.083 200.360,231.503 200.000,231.112 200.000 C 230.720 200.000,230.400 199.820,230.400 199.600 C 230.400 199.380,230.124 199.200,229.787 199.200 C 228.991 199.200,226.400 196.609,226.400 195.813 C 226.400 195.476,226.220 195.200,226.000 195.200 C 225.780 195.200,225.600 194.840,225.600 194.400 C 225.600 193.960,225.432 193.600,225.227 193.600 C 225.022 193.600,224.731 193.213,224.581 192.741 C 224.243 191.674,221.812 189.200,221.102 189.200 C 220.813 189.200,220.317 188.840,220.000 188.400 C 219.683 187.960,219.103 187.600,218.712 187.600 C 218.320 187.600,218.000 187.420,218.000 187.200 C 218.000 186.980,217.724 186.800,217.387 186.800 C 216.591 186.800,214.000 184.209,214.000 183.413 C 214.000 183.076,213.820 182.800,213.600 182.800 C 213.380 182.800,213.200 182.480,213.200 182.088 C 213.200 181.697,212.840 181.117,212.400 180.800 C 211.960 180.483,211.600 179.987,211.600 179.698 C 211.600 179.166,209.050 176.400,208.560 176.400 C 208.414 176.400,207.992 176.051,207.622 175.626 C 207.011 174.921,206.282 174.840,199.561 174.726 L 192.171 174.600 190.686 173.113 C 189.869 172.296,189.200 171.351,189.200 171.013 C 189.200 170.676,189.020 170.400,188.800 170.400 C 188.580 170.400,188.400 170.080,188.400 169.688 C 188.400 169.297,188.040 168.717,187.600 168.400 C 187.160 168.083,186.800 167.587,186.800 167.298 C 186.800 166.616,184.184 164.000,183.502 164.000 C 183.213 164.000,182.717 163.640,182.400 163.200 C 182.083 162.760,181.503 162.400,181.112 162.400 C 180.720 162.400,180.400 162.220,180.400 162.000 C 180.400 161.780,180.124 161.600,179.787 161.600 C 179.101 161.600,176.400 159.058,176.400 158.413 C 176.400 158.186,176.220 158.000,176.000 158.000 C 175.780 158.000,175.600 157.640,175.600 157.200 C 175.600 156.760,175.423 156.400,175.208 156.400 C 174.992 156.400,174.694 155.916,174.545 155.324 C 174.243 154.121,171.912 151.600,171.102 151.600 C 170.813 151.600,170.317 151.240,170.000 150.800 C 169.683 150.360,169.323 150.000,169.200 150.000 C 169.077 150.000,168.717 150.360,168.400 150.800 " stroke="none" fill="#040404" fill-rule="evenodd"></path></g></svg>